<svg height="440pt" viewBox="0 -17 440.93867 440" width="440pt" xmlns="http://www.w3.org/2000/svg"><path d="m431.636719 170.855469c0 16-6.1875 30.996093-17.558594 42.390625l-74.003906 74.175781-182.742188-183.148437 74.007813-74.175782c22.144531-22.589844 62.632812-22.589844 84.96875.191406l97.75 97.964844c11.390625 11.414063 17.578125 26.601563 17.578125 42.601563zm0 0" fill="#42a5f5"/><path d="m340.074219 287.421875-89.960938 89.960937h-165.78125l-57.453125-57.386718c-11.175781-11.199219-17.554687-26.195313-17.554687-42.386719 0-16.386719 6.378906-31.382813 17.746093-42.773437l130.261719-130.5625zm0 0" fill="#eceff1"/><path d="m410.667969 406.011719h-394.667969c-8.832031 0-16-7.167969-16-16s7.167969-16 16-16h394.667969c8.832031 0 16 7.167969 16 16s-7.167969 16-16 16zm0 0"/><path d="m216.746094 406.011719c-4.09375 0-8.171875-1.554688-11.304688-4.671875-6.253906-6.226563-6.253906-16.359375-.023437-22.632813l195.628906-196.054687c5.097656-5.097656 7.914063-11.796875 7.914063-18.835938 0-7.167968-2.796876-13.953125-7.914063-19.050781l-104.75-104.980469c-6.398437-6.570312-13.820313-7.914062-18.964844-7.914062-7.125 0-13.738281 2.75-18.621093 7.761718l-218.796876 219.289063c-6.570312 6.417969-7.914062 13.90625-7.914062 19.070313 0 7.167968 2.753906 13.800781 7.765625 18.710937l81.835937 82.023437c6.226563 6.253907 6.226563 16.386719-.023437 22.636719-6.25 6.230469-16.382813 6.230469-22.632813-.023437l-81.707031-81.875c-11.050781-10.859375-17.238281-25.621094-17.238281-41.472656 0-16 6.1875-30.828126 17.386719-41.792969l218.539062-219.027344c21.71875-22.316406 61.332031-22.273437 83.15625.148437l104.597657 104.832032c11.113281 11.136718 17.257812 25.941406 17.257812 41.664062 0 15.574219-6.144531 30.292969-17.257812 41.449219l-195.625 196.054687c-3.117188 3.136719-7.191407 4.691407-11.308594 4.691407zm0 0"/><path d="m333.269531 289.257812c-4.097656 0-8.191406-1.558593-11.328125-4.695312l-165.121094-165.480469c-6.226562-6.273437-6.226562-16.386719.023438-22.636719 6.25-6.230468 16.382812-6.230468 22.632812.019532l165.121094 165.484375c6.230469 6.25 6.230469 16.382812-.023437 22.636719-3.132813 3.113281-7.230469 4.671874-11.304688 4.671874zm0 0"/></svg>