<?xml version="1.0" encoding="utf-8"?>
<!-- Generator: Adobe Illustrator 16.0.0, SVG Export Plug-In . SVG Version: 6.00 Build 0)  -->
<!DOCTYPE svg PUBLIC "-//W3C//DTD SVG 1.1//EN" "http://www.w3.org/Graphics/SVG/1.1/DTD/svg11.dtd">
<svg version="1.1" id="Capa_1" xmlns="http://www.w3.org/2000/svg" xmlns:xlink="http://www.w3.org/1999/xlink" x="0px" y="0px"
	 width="315.953px" height="315.956px" viewBox="0 0 315.953 315.956" enable-background="new 0 0 315.953 315.956"
	 xml:space="preserve">
<g>
	<path fill="#F7A627" d="M295.313,168.262l-22.991,33.563c-0.932,1.359,1.225-0.586-32.517,27.199v61.376
		c0,4.546-3.688,8.228-8.239,8.228h-30.912l-5.489-8.975V23.845l5.489-6.515h0.007c10.242,0,18.543,8.286,18.543,18.503v16.739
		c0-5.106,2.076-9.734,5.434-13.082c3.351-3.351,7.988-5.421,13.109-5.421c10.237,0,18.544,8.286,18.544,18.503v85.417
		c8-9.109,21.962-11.326,32.584-4.055C300.121,141.627,303.013,157.027,295.313,168.262L295.313,168.262z"/>
	<path fill="#FBC374" d="M200.653,17.33v281.297h-67.979c-4.559,0-8.24-3.682-8.24-8.228v-73.493
		c-10.659-11.83-16.485-26.958-16.485-42.986V68.929c0-10.201,8.289-18.503,18.544-18.503c10.242,0,18.543,8.283,18.543,18.503
		V44.153c0-10.206,8.289-18.504,18.544-18.504c10.236,0,18.537,8.286,18.537,18.504v-8.319
		C182.116,25.658,190.38,17.33,200.653,17.33z"/>
	<g>
		<path fill="#FFDA2E" d="M57.672,45.017c-3.222-3.22-8.441-3.22-11.657,0c-3.216,3.216-3.216,8.435,0,11.654L57.55,68.21
			c3.223,3.216,8.436,3.216,11.657,0c3.217-3.219,3.217-8.436,0-11.658L57.672,45.017z"/>
		<path fill="#FFDA2E" d="M105.823,40.324l-4.221-15.744c-1.177-4.398-5.698-7.005-10.097-5.826
			c-4.392,1.176-7.002,5.697-5.825,10.092l4.221,15.747c1.177,4.396,5.691,7.002,10.089,5.826
			C104.39,49.243,106.999,44.723,105.823,40.324z"/>
		<path fill="#FFDA2E" d="M45.591,88.9l-15.75-4.218c-4.393-1.18-8.913,1.428-10.089,5.825c-1.176,4.396,1.428,8.914,5.825,10.097
			l15.745,4.217c4.404,1.18,8.919-1.434,10.095-5.829C52.594,94.598,49.984,90.08,45.591,88.9z"/>
	</g>
	<path fill="#CE6A31" d="M210.002,144.294v89.813c0,16.063-5.832,31.226-16.479,43.075v13.201c0,4.55-3.688,8.243-8.239,8.243
		H117.29l-5.488-7.835V100.291l5.488-7.694c10.244,0,18.544,8.301,18.544,18.544v8.335c0-10.243,8.301-18.541,18.537-18.541
		c10.243,0,18.55,8.298,18.55,18.541v24.818c0-10.229,8.301-18.539,18.537-18.539C201.7,125.755,210.002,134.064,210.002,144.294z"
		/>
	<path fill="#D9834A" d="M117.29,92.597v206.03H86.391c-4.551,0-8.245-3.693-8.245-8.243v-1.059l-30.961-25.549
		c-1.255-1.041,0.57,1.403-24.547-35.338c-7.694-11.251-4.808-26.683,6.439-34.395c10.616-7.278,24.584-5.069,32.584,4.068v-70.198
		c0-10.243,8.307-18.544,18.544-18.544c10.242,0,18.543,8.301,18.543,18.544v-16.773C98.747,100.897,107.048,92.597,117.29,92.597z"
		/>
</g>
</svg>
