<?xml version="1.0" encoding="utf-8"?>
<!-- Generator: Adobe Illustrator 16.0.0, SVG Export Plug-In . SVG Version: 6.00 Build 0)  -->
<!DOCTYPE svg PUBLIC "-//W3C//DTD SVG 1.1//EN" "http://www.w3.org/Graphics/SVG/1.1/DTD/svg11.dtd">
<svg version="1.1" id="Capa_1" xmlns="http://www.w3.org/2000/svg" xmlns:xlink="http://www.w3.org/1999/xlink" x="0px" y="0px"
	 width="315.953px" height="315.956px" viewBox="0 0 315.953 315.956" enable-background="new 0 0 315.953 315.956"
	 xml:space="preserve">
<g>
	<path fill="#E9463A" d="M239.852,82.872c-10.268-9.286-25.263-8.146-34.229,0.981c-9.138,9.29-9.788,25.105,1.626,35.544
		c18.26,16.472,27.388,41.586,22.992,66.849c-5.876,34.252-35.714,60.667-72.235,60.822c-37.504,0-66.199-27.065-72.068-59.67
		c-4.727-25.278,3.912-50.714,22.828-68.001c11.411-10.438,10.761-26.254,1.629-35.544c-8.97-9.127-23.968-10.268-34.403-0.814
		c-28.697,26.087-43.702,64.566-39.625,103.539c6.69,61.964,58.863,109.247,121.64,109.411c0.164,0,0.164,0,0.325,0
		c62.125,0,112.998-47.447,120.825-105.332C284.535,150.384,269.856,110.105,239.852,82.872z"/>
	<path fill="#BA3A2D" d="M279.155,190.657c-7.827,57.885-58.7,105.332-120.825,105.332c-0.161,0-0.161,0-0.325,0v-48.921
		c36.521-0.155,66.359-26.57,72.235-60.822c4.396-25.263-4.732-50.377-22.992-66.849c-11.414-10.438-10.764-26.254-1.626-35.544
		c8.967-9.127,23.962-10.268,34.229-0.981C269.856,110.105,284.535,150.384,279.155,190.657z"/>
	<path fill="#E9463A" d="M158.005,17.708c-13.533,0-24.454,10.928-24.454,24.455v98.923c0,13.529,10.921,24.457,24.454,24.457
		c13.529,0,24.457-10.928,24.457-24.457V42.163C182.462,28.636,171.534,17.708,158.005,17.708z"/>
	<path fill="#BA3A2D" d="M182.462,42.163v98.923c0,13.529-10.928,24.457-24.457,24.457V17.708
		C171.534,17.708,182.462,28.636,182.462,42.163z"/>
</g>
</svg>
