<svg height="512" viewBox="0 0 58 58" width="512" xmlns="http://www.w3.org/2000/svg"><g id="Page-1" fill="none" fill-rule="evenodd"><g id="058---Compass-and-Map" fill-rule="nonzero"><path id="Shape" d="m16.54 25.92-.33 5.7-.19 3.37-.14 2.45-.21 3.58-.67 11.76-13.45 4.68c-.33047652.1158268-.69746382.050345-.96748786-.1726294-.27002405-.2229744-.40373888-.5709512-.35251214-.9173706 1.53-10.65 2.41-16.76 2.92-20.28.11-.77.21-1.42.29-1.97.39-2.73.4-2.83.41-2.91l1.07-7.44c.05067488-.3412573.27367571-.6322923.59-.77l9.49-4.13v3.63c.0461102 1.2975779.598985 2.5253909 1.54 3.42z" fill="#e4c05c"/><path id="Shape" d="m29 30v28l-14-5.22.67-11.76.54-9.4.33-5.7c2.32 2.42 7.03 4.08 12.46 4.08z" fill="#f3d55b"/><path id="Shape" d="m56.45 57.46-13.45-4.68-.67-11.76-.2-3.56-.15-2.45-.19-3.39-.33-5.7c.941015-.8946091 1.4938898-2.1224221 1.54-3.42v-3.63l9.49 4.13c.3163243.1377077.5393251.4287427.59.77l1.07 7.44c.17 1.2.31 2.15.42 2.9.09.62.16 1.1.21 1.47 0 .03.01.05.01.08.02.12.03.23.05.32 0 .02.01.07.01.11.01.0666667.02.1266667.03.18.01.06.02.12.03.19.28 1.92 1.03 7.16 2.86 19.91.0512267.3464194-.0824881.6943962-.3525121.9173706-.2700241.2229744-.6370114.2884562-.9674879.1726294z" fill="#f3d55b"/><path id="Shape" d="m24.707 44.293c-.3904999-.3903819-1.0235001-.3903819-1.414 0l-.987.987-1.525-1.905c-.223291-.2790244-.5784781-.4177293-.9317659-.3638658-.3532877.0538634-.6510032.2921121-.781.625-.1299967.3328878-.0725251.7098414.1507659.9888658l1.663 2.075-1.589 1.589c-.2599566.2510745-.3642126.6228779-.2726972.9725073.0915155.3496295.3645604.6226744.7141899.7141899.3496294.0915154.7214328-.0127406.9725073-.2726972l1.432-1.432 1.08 1.35c.223291.2790244.5784781.4177293.9317659.3638659.3532877-.0538635.6510033-.2921121.781-.625s.0725251-.7098415-.1507659-.9888659l-1.219-1.523 1.145-1.145c.3877236-.3900375.3877236-1.0199625 0-1.41z" fill="#e64c3c"/><path id="Shape" d="m49.007 27.407.7-.7c.3789722-.3923789.3735524-1.0160848-.0121814-1.4018186s-1.0094397-.3911536-1.4018186-.0121814l-.543.543-.969-1.211c-.345178-.4313344-.9746656-.5011779-1.406-.156-.4313344.345178-.5011779.9746656-.156 1.406l1.107 1.385-1.033 1.033c-.2599566.2510745-.3642126.6228779-.2726972.9725073.0915155.3496295.3645604.6226744.7141899.7141899.3496294.0915154.7214328-.0127406.9725073-.2726972l.876-.876.636.794c.223291.2790244.5784781.4177293.9317659.3638659.3532877-.0538635.6510033-.2921121.781-.625s.0725251-.7098415-.1507659-.9888659z" fill="#e64c3c"/><path id="Shape" d="m43 52.78-14 5.22v-28c5.43 0 10.14-1.66 12.46-4.08l.33 5.7.54 9.4z" fill="#e4c05c"/><path id="Shape" d="m54.85 36.09c-1.0189743.1837696-1.9790992.6089678-2.8 1.24-1.4467291 1.1104394-3.2264703 1.6989875-5.05 1.67-1.7488466.0384934-3.4612463-.5030047-4.87-1.54-.07-.04-.13-.09-.2-.13-.21-.14-.42-.28-.64-.42-.9807832-.6342764-2.1327454-.9519387-3.3-.91-1.4306949-.0257694-2.826262.4441305-3.95 1.33-2.9984432 2.2268235-7.1015568 2.2268235-10.1 0-1.123738-.8858695-2.5193051-1.3557694-3.95-1.33-1.1577893-.038489-2.3004613.2715653-3.28.89-.22.14-.44.29-.66.43-.06.04-.11.08-.17.12-1.4091183 1.0458878-3.1254912 1.5945644-4.88 1.56-1.82352966.0289875-3.60327095-.5595606-5.05-1.67-.82090083-.6310322-1.78102574-1.0562304-2.8-1.24.11-.77.21-1.42.29-1.97 1.31270232.2111985 2.55282829.7436625 3.61 1.55 1.12373795.8858695 2.51930514 1.3557694 3.95 1.33 1.4295547.0273785 2.8235609-.4467251 3.94-1.34.24-.16.48-.32.73-.47.1132063-.0725477.2300234-.1393003.35-.2 1.2091647-.6836732 2.581403-1.0258687 3.97-.99 1.8235297-.0289875 3.6032709.5595606 5.05 1.67 2.3311006 1.7732517 5.5588994 1.7732517 7.89 0 1.4515063-1.1086534 3.2337302-1.6968577 5.06-1.67 1.3977144-.0379315 2.778667.311633 3.99 1.01.1199766.0606997.2367937.1274523.35.2.25.15.48.3.71.46 2.3384429 1.7734899 5.5715571 1.7734899 7.91 0 1.0634303-.8039355 2.3053121-1.3391111 3.62-1.56.09.62.16 1.1.21 1.47l.01.02v.06c.01.01.01.04.02.08v.01c.0025497.0774555.0125966.1544819.03.23 0 .02.01.07.01.11z" fill="#3b97d3"/><ellipse id="Oval" cx="29" cy="15.5" fill="#7f8c8d" rx="14" ry="7.5"/><ellipse id="Oval" cx="29" cy="15.5" fill="#84b5cb" rx="12" ry="5.5"/><ellipse id="Oval" cx="29" cy="4" fill="#95a5a5" rx="14" ry="4"/><path id="Shape" d="m43 15.5v7c-.0461102 1.2975779-.598985 2.5253909-1.54 3.42-2.32 2.42-7.03 4.08-12.46 4.08s-10.14-1.66-12.46-4.08c-.941015-.8946091-1.4938898-2.1224221-1.54-3.42v-7c0 4.14 6.27 7.5 14 7.5s14-3.36 14-7.5z" fill="#95a5a5"/><path id="Shape" d="m43 15.5v5c-.0461102 1.2975779-.598985 2.5253909-1.54 3.42-2.32 2.42-7.03 4.08-12.46 4.08s-10.14-1.66-12.46-4.08c-.941015-.8946091-1.4938898-2.1224221-1.54-3.42v-5c0 4.14 6.27 7.5 14 7.5s14-3.36 14-7.5z" fill="#bdc3c7"/><path id="Shape" d="m31 15.861c-.5117588.0002024-.9410853-.3859968-.9948595-.8949226-.0537743-.5089258.2853593-.9763222.7858595-1.0830774l4.01-.86c.5345681-.1037911 1.0539138.2392232 1.168292.7716265s-.2182632 1.0584533-.748292 1.1833735l-4.01.861c-.0693797.014633-.1400939.0220061-.211.022z" fill="#3b97d3"/><path id="Shape" d="m22.549 17.861c-.5115678-.000309-.9404126-.3866571-.9939124-.8954197-.0534998-.5087627.2855989-.9758652.7859124-1.0825803l4.45-.95c.5322317-.0980197 1.0458657.2451548 1.1590188.7743758.1131531.5292209-.2152388 1.0524296-.7410188 1.1806242l-4.45.951c-.0690425.0146286-.1394248.022002-.21.022z" fill="#ff5364"/><ellipse id="Oval" cx="29" cy="15" fill="#bdc3c7" rx="3" ry="2"/></g></g></svg>