<?xml version="1.0" encoding="utf-8"?>
<!-- Generator: Adobe Illustrator 16.0.0, SVG Export Plug-In . SVG Version: 6.00 Build 0)  -->
<!DOCTYPE svg PUBLIC "-//W3C//DTD SVG 1.1//EN" "http://www.w3.org/Graphics/SVG/1.1/DTD/svg11.dtd">
<svg version="1.1" id="Capa_1" xmlns="http://www.w3.org/2000/svg" xmlns:xlink="http://www.w3.org/1999/xlink" x="0px" y="0px"
	 width="315.953px" height="315.956px" viewBox="0 0 315.953 315.956" enable-background="new 0 0 315.953 315.956"
	 xml:space="preserve">
<g>
	<path fill="#E9463A" d="M281.725,83.908c7.736,0,14.011,6.271,14.011,14.006c0,7.742-6.274,14.013-14.011,14.013
		s-14.011-6.271-14.011-14.013C267.714,90.18,273.988,83.908,281.725,83.908z"/>
	<path fill="#E9463A" d="M38.896,239.174c7.738,0,14.01,6.274,14.01,14.011c0,7.733-6.271,14.008-14.01,14.008
		c-7.731,0-14.006-6.274-14.006-14.008C24.89,245.448,31.164,239.174,38.896,239.174z"/>
	<path fill="#E9463A" d="M230.354,270.696c7.736,0,14.011,6.274,14.011,14.008c0,7.739-6.274,14.01-14.011,14.01
		c-7.742,0-14.011-6.271-14.011-14.01C216.344,276.971,222.612,270.696,230.354,270.696z"/>
	<path fill="#E9463A" d="M160.313,153.95c7.73,0,14.005,6.274,14.005,14.017c0,7.733-6.274,14.005-14.005,14.005
		c-7.736,0-14.011-6.271-14.011-14.005C146.302,160.225,152.576,153.95,160.313,153.95z"/>
</g>
<path fill="#E9463A" d="M61.796,27.872c7.733,0,14.005,6.269,14.005,14.005c0,7.742-6.271,14.011-14.005,14.011
	c-7.736,0-14.011-6.269-14.011-14.011C47.785,34.141,54.06,27.872,61.796,27.872z"/>
<path fill="#5D6067" d="M61.796,93.244c-2.582,0-4.678-1.621-4.678-3.63V64.189c0-2.008,2.096-3.63,4.678-3.63
	c2.577,0,4.667,1.622,4.667,3.63v25.425C66.463,91.623,64.373,93.244,61.796,93.244z"/>
<path fill="#5D6067" d="M143.243,164.006c-0.481,2.535-2.465,4.291-4.437,3.916l-24.979-4.739c-1.972-0.375-3.176-2.739-2.694-5.274
	c0.481-2.532,2.465-4.28,4.437-3.907l24.979,4.745C142.521,159.121,143.725,161.474,143.243,164.006z"/>
<path fill="#5D6067" d="M145.002,91.858c1.558,2.663,0.79,6.017-1.725,7.486l-31.864,18.641c-2.521,1.474-5.815,0.499-7.378-2.165
	c-1.552-2.661-0.779-6.002,1.736-7.476l31.867-18.644C140.156,88.233,143.448,89.197,145.002,91.858z"/>
<path fill="#5D6067" d="M205.658,218.491c1.557,2.664,1.655,5.512,0.21,6.355l-18.313,10.714c-1.445,0.846-3.876-0.633-5.439-3.3
	c-1.555-2.661-1.646-5.498-0.201-6.347l18.313-10.711C201.672,214.359,204.101,215.83,205.658,218.491z"/>
<path fill="#5D6067" d="M233.149,159.144c-2.772,1.345-6.263-0.096-7.786-3.238l-19.336-39.788
	c-1.526-3.146-0.507-6.775,2.271-8.125c2.773-1.345,6.252,0.101,7.776,3.243l19.332,39.788
	C236.937,154.166,235.923,157.794,233.149,159.144z"/>
<path fill="#5D6067" d="M87.027,253.145c0.003,2.577-1.613,4.678-3.622,4.684l-25.424,0.054c-2.009,0.002-3.636-2.09-3.642-4.67
	c-0.006-2.576,1.613-4.669,3.621-4.672l25.425-0.056C85.395,248.481,87.019,250.568,87.027,253.145z"/>
<path fill="#5D6067" d="M266.571,91.85c-1.048,2.358-3.384,3.613-5.216,2.798l-23.231-10.333c-1.832-0.817-2.465-3.392-1.417-5.75
	c1.048-2.353,3.378-3.602,5.216-2.787l23.231,10.333C266.985,86.928,267.619,89.494,266.571,91.85z"/>
<path fill="#5D6067" d="M215.543,277.62c-1.048,2.358-3.378,3.613-5.216,2.798l-23.231-10.333c-1.832-0.817-2.465-3.392-1.412-5.75
	c1.048-2.355,3.378-3.603,5.21-2.787l23.231,10.336C215.957,272.698,216.59,275.268,215.543,277.62z"/>
<circle fill="#427DC0" cx="61.793" cy="145.682" r="47.149"/>
<g>
	<path fill="#F6F6F6" d="M61.796,115.33c7.733,0,14.005,6.269,14.005,14.005c0,7.742-6.271,14.011-14.005,14.011
		c-7.736,0-14.011-6.269-14.011-14.011C47.785,121.599,54.06,115.33,61.796,115.33z"/>
	<path fill="#F6F6F6" d="M75.342,148.013H48.239c-5.406,0-9.795,4.213-9.795,9.408v12.313c6.87,3.985,14.831,6.299,23.352,6.299
		c8.518,0,16.476-2.313,23.35-6.299v-12.313C85.137,152.226,80.753,148.013,75.342,148.013z"/>
</g>
<circle fill="#427DC0" cx="188.327" cy="62.98" r="47.148"/>
<g>
	<path fill="#F6F6F6" d="M188.328,32.628c7.736,0,14.008,6.269,14.008,14.008c0,7.739-6.271,14.007-14.008,14.007
		s-14.011-6.269-14.011-14.007C174.317,38.897,180.592,32.628,188.328,32.628z"/>
	<path fill="#F6F6F6" d="M201.874,65.311h-27.1c-5.406,0-9.795,4.213-9.795,9.411v12.313c6.87,3.982,14.828,6.296,23.349,6.296
		s16.476-2.313,23.349-6.296V74.722C211.672,69.523,207.285,65.311,201.874,65.311z"/>
</g>
<path fill="#427DC0" d="M301.309,203.428c0,26.04-21.107,47.151-47.151,47.151c-26.038,0-47.146-21.111-47.146-47.151
	c0-26.038,21.108-47.146,47.146-47.146C280.201,156.281,301.309,177.39,301.309,203.428z"/>
<g>
	<path fill="#F6F6F6" d="M254.163,173.076c7.73,0,14.005,6.269,14.005,14.008c0,7.738-6.274,14.007-14.005,14.007
		c-7.742,0-14.011-6.269-14.011-14.007C240.152,179.345,246.421,173.076,254.163,173.076z"/>
	<path fill="#F6F6F6" d="M267.708,205.758h-27.103c-5.405,0-9.798,4.213-9.798,9.411v12.313c6.874,3.982,14.829,6.297,23.355,6.297
		c8.515,0,16.476-2.314,23.343-6.297v-12.313C277.501,209.971,273.12,205.758,267.708,205.758z"/>
</g>
<circle fill="#427DC0" cx="136.625" cy="256.688" r="47.149"/>
<g>
	<path fill="#F6F6F6" d="M136.627,226.334c7.731,0,14.006,6.271,14.006,14.011c0,7.736-6.274,14.008-14.006,14.008
		c-7.738,0-14.01-6.271-14.01-14.008C122.617,232.605,128.889,226.334,136.627,226.334z"/>
	<path fill="#F6F6F6" d="M150.173,259.016H123.07c-5.405,0-9.798,4.213-9.798,9.411v12.313c6.874,3.983,14.831,6.3,23.354,6.3
		c8.516,0,16.476-2.316,23.347-6.3v-12.313C159.965,263.229,155.585,259.016,150.173,259.016z"/>
</g>
</svg>
