<svg height="512" viewBox="0 0 60 60" width="512" xmlns="http://www.w3.org/2000/svg"><g id="Page-1" fill="none" fill-rule="evenodd"><g id="038---MOBA-Game" fill-rule="nonzero"><g id="Icons" transform="translate(1 1)"><rect id="Rectangle-path" fill="#60a917" height="58" rx="2" width="58"/><path id="Shape" d="m56 0h-3c1.1045695 0 2 .8954305 2 2v54c0 1.1045695-.8954305 2-2 2h3c1.1045695 0 2-.8954305 2-2v-54c0-1.1045695-.8954305-2-2-2z" fill="#549414"/><path id="Shape" d="m17 43c-2 0-5 2-8 2s-4-1-4-1v-7s1 1 4 1 6-2 8-2z" fill="#f44335"/><path id="Shape" d="m14 36.772v6.228c-1.7 0-4.135 1.443-6.673 1.872.55338644.0869944 1.11282025.1297963 1.673.128 3 0 6-2 8-2v-7c-1.034881.0950663-2.0477784.3557185-3 .772z" fill="#c81e1e"/><path id="Shape" d="m53 13c-2 0-5 2-8 2s-4-1-4-1v-7s1 1 4 1 6-2 8-2z" fill="#f44335"/><path id="Shape" d="m50 6.772v6.228c-1.7 0-4.135 1.443-6.673 1.872.5533864.0869944 1.1128202.1297963 1.673.128 3 0 6-2 8-2v-7c-1.034881.09506626-2.0477784.35571852-3 .772z" fill="#c81e1e"/><circle id="Oval" cx="49" cy="49" fill="#ffdc00" r="4"/><path id="Shape" d="m49 45c-.5146843.0021695-1.0240724.1040471-1.5.3 1.5110147.6085107 2.5007405 2.0740584 2.5007405 3.703s-.9897258 3.0944893-2.5007405 3.703c1.496414.6077595 3.211506.2559465 4.3478056-.8918556s1.4708211-2.8663504.8480212-4.3565675c-.6227999-1.490217-2.0807039-2.4596648-3.6958268-2.4575769z" fill="#fec108"/><circle id="Oval" cx="27" cy="38" fill="#ffdc00" r="4"/><path id="Shape" d="m27 34c-.5146843.0021695-1.0240724.1040471-1.5.3 1.5110147.6085107 2.5007405 2.0740584 2.5007405 3.703s-.9897258 3.0944893-2.5007405 3.703c1.496414.6077595 3.211506.2559465 4.3478056-.8918556s1.4708211-2.8663504.8480212-4.3565675c-.6227999-1.490217-2.0807039-2.4596648-3.6958268-2.4575769z" fill="#fec108"/><circle id="Oval" cx="9" cy="9" fill="#ffdc00" r="4"/><path id="Shape" d="m9 5c-.51468434.00216946-1.02407235.10404706-1.5.3 1.51101468.60851068 2.5007405 2.07405844 2.5007405 3.703 0 1.6289416-.98972582 3.0944893-2.5007405 3.703 1.49641401.6077595 3.211506.2559465 4.3478056-.8918556s1.4708211-2.86635044.8480212-4.35656747-2.0807039-2.45966481-3.6958268-2.45757693z" fill="#fec108"/></g><g id="Icons_copy" fill="#000"><path id="Shape" d="m57 0h-54c-1.65685425 0-3 1.34314575-3 3v54c0 1.6568542 1.34314575 3 3 3h54c1.6568542 0 3-1.3431458 3-3v-54c0-1.65685425-1.3431458-3-3-3zm1 57c0 .5522847-.4477153 1-1 1h-54c-.55228475 0-1-.4477153-1-1v-54c0-.55228475.44771525-1 1-1h54c.5522847 0 1 .44771525 1 1z"/><path id="Shape" d="m18 36c-1.2277997.1047318-2.4297523.4122317-3.557.91-1.4089149.611346-2.9111192.9798814-4.443 1.09-1.02795928.0505329-2.05392103-.1337983-3-.539v-1.461c0-.5522847-.44771525-1-1-1s-1 .4477153-1 1v18c0 .5522847.44771525 1 1 1s1-.4477153 1-1v-7.4c.97430865.2828985 1.98560646.4177382 3 .4 1.7684442-.1003386 3.5055119-.5105736 5.132-1.212.9118741-.4027618 1.8783511-.6683071 2.868-.788.5522847 0 1-.4477153 1-1v-7c0-.5522847-.4477153-1-1-1zm-1 7.108c-.8711127.2024477-1.7258372.4698625-2.557.8-1.4087933.6120338-2.9110021.9812465-4.443 1.092-1.02751247.0481133-2.05271892-.135057-3-.536v-4.858c.97482349.2798814 1.98596571.412678 3 .394 1.7684442-.1003386 3.5055119-.5105736 5.132-1.212.664-.244 1.306-.479 1.868-.628z"/><path id="Shape" d="m54 6c-1.2277997.10473183-2.4297523.41223166-3.557.91-1.4089149.61134597-2.9111192.97988136-4.443 1.09-1.0279593.05053285-2.053921-.13379827-3-.539v-1.461c0-.55228475-.4477153-1-1-1s-1 .44771525-1 1v18c0 .5522847.4477153 1 1 1s1-.4477153 1-1v-7.4c.9743087.2828985 1.9856065.4177382 3 .4 1.7684442-.1003386 3.5055119-.5105736 5.132-1.212.9118741-.4027618 1.8783511-.6683071 2.868-.788.5522847 0 1-.4477153 1-1v-7c0-.55228475-.4477153-1-1-1zm-1 7.108c-.8711127.2024477-1.7258372.4698625-2.557.8-1.4087933.6120338-2.9110021.9812465-4.443 1.092-1.0275125.0481133-2.0527189-.135057-3-.536v-4.858c.9748235.27988136 1.9859657.412678 3 .394 1.7684442-.10033855 3.5055119-.51057355 5.132-1.212.668-.244 1.306-.479 1.868-.628z"/><path id="Shape" d="m51 45.1v-17.1c-.0033061-2.7600532-2.2399468-4.9966939-5-5-.5522847 0-1 .4477153-1 1s.4477153 1 1 1c1.6568542 0 3 1.3431458 3 3v17.1c-1.9621984.404488-3.495512 1.9378016-3.9 3.9h-11.1c-2.7600532-.0033061-4.9966939-2.2399468-5-5v-.1c2.330324-.4731925 4.0050126-2.5221184 4.0050126-4.9s-1.6746886-4.4268075-4.0050126-4.9v-13.1c-.0071648-6.624447-5.375553-11.99283515-12-12h-2.1c-.5011364-2.45178129-2.7376742-4.15548599-5.23449748-3.98742997-2.49682325.16805603-4.48487646 2.15610924-4.65293249 4.65293249-.16805602 2.49682328 1.53564868 4.73336108 3.98742997 5.23449748v4.6c.00275556 2.4841391 2.0158609 4.4972444 4.5 4.5 1.3807119 0 2.5 1.1192881 2.5 2.5v6.5c0 .5522847.4477153 1 1 1s1-.4477153 1-1v-6.5c-.0027556-2.4841391-2.0158609-4.4972444-4.5-4.5-1.3807119 0-2.5-1.1192881-2.5-2.5v-4.6c1.9621984-.404488 3.495512-1.9378016 3.9-3.9h2.1c5.5203344.0060624 9.9939376 4.4796656 10 10v13.1c-2.330324.4731925-4.0050126 2.5221184-4.0050126 4.9s1.6746886 4.4268075 4.0050126 4.9v.1c.0044086 3.8641657 3.1358343 6.9955914 7 7h11.1c.5011364 2.4517813 2.7376742 4.155486 5.2344975 3.98743 2.4968232-.1680561 4.4848764-2.1561093 4.6529325-4.6529325.168056-2.4968233-1.5356487-4.7333611-3.98743-5.2344975zm-41-32.1c-1.65685425 0-3-1.3431458-3-3 0-1.65685425 1.34314575-3 3-3 1.6568542 0 3 1.34314575 3 3 0 .7956495-.3160705 1.5587112-.8786797 2.1213203-.5626091.5626092-1.3256708.8786797-2.1213203.8786797zm15 26c0-1.6568542 1.3431458-3 3-3s3 1.3431458 3 3-1.3431458 3-3 3-3-1.3431458-3-3zm25 14c-1.6568542 0-3-1.3431458-3-3s1.3431458-3 3-3 3 1.3431458 3 3-1.3431458 3-3 3z"/></g></g></g></svg>