<?xml version="1.0" encoding="utf-8"?>
<!-- Generator: Adobe Illustrator 16.0.0, SVG Export Plug-In . SVG Version: 6.00 Build 0)  -->
<!DOCTYPE svg PUBLIC "-//W3C//DTD SVG 1.1//EN" "http://www.w3.org/Graphics/SVG/1.1/DTD/svg11.dtd">
<svg version="1.1" id="Capa_1" xmlns="http://www.w3.org/2000/svg" xmlns:xlink="http://www.w3.org/1999/xlink" x="0px" y="0px"
	 width="315.953px" height="315.956px" viewBox="0 0 315.953 315.956" enable-background="new 0 0 315.953 315.956"
	 xml:space="preserve">
<g>
	<path fill="#F59E19" d="M185.672,246.621c0,24.477-19.836,44.319-44.318,44.319c-24.477,0-44.319-19.843-44.319-44.319
		c0-24.479,19.843-44.324,44.319-44.324C165.836,202.297,185.672,222.143,185.672,246.621z"/>
	<path fill="#FCC010" d="M219.009,157.103c-37.569-5.365-66.571-37.661-66.571-76.684c0-11.085,2.368-21.6,6.57-31.14
		c-5.677-1.328-11.57-2.102-17.654-2.102c-42.767,0-77.56,34.787-77.56,77.56v30.891c0,21.929-9.609,42.629-26.461,56.878
		c-4.31,3.675-6.779,9.052-6.779,14.723c0,10.694,8.691,19.393,19.387,19.393h182.826c10.694,0,19.393-8.698,19.393-19.393
		c0-5.671-2.476-11.048-6.894-14.821C228.912,198.565,219.428,178.477,219.009,157.103z"/>
	<path fill="#E9463A" d="M285.399,80.419c0,30.597-24.806,55.396-55.402,55.396s-55.403-24.8-55.403-55.396
		c0-30.598,24.807-55.403,55.403-55.403S285.399,49.821,285.399,80.419z"/>
</g>
</svg>
