<?xml version="1.0" encoding="utf-8"?>
<!-- Generator: Adobe Illustrator 16.0.0, SVG Export Plug-In . SVG Version: 6.00 Build 0)  -->
<!DOCTYPE svg PUBLIC "-//W3C//DTD SVG 1.1//EN" "http://www.w3.org/Graphics/SVG/1.1/DTD/svg11.dtd">
<svg version="1.1" id="Capa_1" xmlns="http://www.w3.org/2000/svg" xmlns:xlink="http://www.w3.org/1999/xlink" x="0px" y="0px"
	 width="315.953px" height="315.956px" viewBox="0 0 315.953 315.956" enable-background="new 0 0 315.953 315.956"
	 xml:space="preserve">
<g>
	<path fill="#4B576E" d="M60.506,19.132h194.941c21.23,0,38.564,17.327,38.564,38.562v200.57c0,21.24-17.334,38.562-38.564,38.562
		H60.506c-21.23,0-38.564-17.321-38.564-38.562V57.256C21.941,36.459,39.275,19.132,60.506,19.132z"/>
	<path fill="#72B95A" d="M147.575,200.659l-56.75-57.192l-68.884,68.89v14.718v31.189c0,21.24,17.334,38.562,38.564,38.562h194.941
		c21.23,0,38.564-17.321,38.564-38.562v-31.189v-42.887l-64.555-64.982L147.575,200.659z"/>
	<path fill="#FCC010" d="M146.279,86.717c13.398,0,24.253,10.866,24.253,24.256c0,13.407-10.854,24.261-24.253,24.261
		c-13.397,0-24.255-10.854-24.255-24.261C122.024,97.583,132.882,86.717,146.279,86.717z"/>
</g>
</svg>
