<?xml version="1.0" encoding="utf-8"?>
<!-- Generator: Adobe Illustrator 16.0.0, SVG Export Plug-In . SVG Version: 6.00 Build 0)  -->
<!DOCTYPE svg PUBLIC "-//W3C//DTD SVG 1.1//EN" "http://www.w3.org/Graphics/SVG/1.1/DTD/svg11.dtd">
<svg version="1.1" id="Capa_1" xmlns="http://www.w3.org/2000/svg" xmlns:xlink="http://www.w3.org/1999/xlink" x="0px" y="0px"
	 width="315.953px" height="315.956px" viewBox="0 0 315.953 315.956" enable-background="new 0 0 315.953 315.956"
	 xml:space="preserve">
<g>
	<path fill="#49C1F0" d="M262.503,109.162c-2.627-4.108-8.052-4.931-11.991-2.134l-26.627,20.048
		c-3.291,2.468-4.279,7.063-2.139,10.678c6.734,11.514,10.184,23.844,10.184,36.662c0,40.758-33.193,73.953-73.951,73.953
		c-40.759,0-73.956-33.195-73.956-73.953c0-37.972,28.76-69.362,65.742-73.471v24.155c0,4.937,3.94,8.064,8.214,8.229
		c1.639,0,3.449-0.5,4.924-1.651l65.743-49.304c4.437-3.292,4.437-9.862,0-13.147l-65.743-49.852
		c-1.475-1.146-3.285-1.646-4.924-1.646c-4.273,0-8.214,3.45-8.214,8.216v25.533c-64.1,4.114-115.046,57.685-115.046,122.938
		c0,68.034,55.22,123.811,123.26,123.811s123.255-55.776,123.255-123.811C281.233,151.4,274.666,128.88,262.503,109.162z"/>
	<g>
		<path fill="#27ABE2" d="M162.902,131.678c-1.475,1.151-3.285,1.651-4.924,1.651V17.729c1.639,0,3.449,0.5,4.924,1.646
			l65.743,49.852c4.437,3.285,4.437,9.855,0,13.147L162.902,131.678z"/>
		<path fill="#27ABE2" d="M281.233,174.416c0,68.034-55.215,123.811-123.255,123.811v-49.857c40.758,0,73.951-33.195,73.951-73.953
			c0-12.818-3.449-25.148-10.184-36.662c-2.141-3.614-1.152-8.21,2.139-10.678l26.627-20.048c3.939-2.797,9.364-1.975,11.991,2.134
			C274.666,128.88,281.233,151.4,281.233,174.416z"/>
	</g>
</g>
</svg>
