<?xml version="1.0" encoding="utf-8"?>
<!-- Generator: Adobe Illustrator 16.0.0, SVG Export Plug-In . SVG Version: 6.00 Build 0)  -->
<!DOCTYPE svg PUBLIC "-//W3C//DTD SVG 1.1//EN" "http://www.w3.org/Graphics/SVG/1.1/DTD/svg11.dtd">
<svg version="1.1" id="Capa_1" xmlns="http://www.w3.org/2000/svg" xmlns:xlink="http://www.w3.org/1999/xlink" x="0px" y="0px"
	 width="315.953px" height="315.956px" viewBox="0 0 315.953 315.956" enable-background="new 0 0 315.953 315.956"
	 xml:space="preserve">
<g>
	<path fill="#72B95A" d="M278.493,57.058c-1.587-1.741-3.649-2.698-6.021-2.698H49.386c-2.372,0-4.435,0.957-6.021,2.698
		c-1.426,1.748-2.223,4.125-1.904,6.342l30.341,209.453c1.744,11.732,11.893,20.457,23.628,20.457h131
		c11.738,0,21.884-8.725,23.631-20.457l30.335-209.453C280.716,61.183,279.919,58.806,278.493,57.058z"/>
	<path fill="#1AA95F" d="M280.395,63.399L250.06,272.853c-1.747,11.732-11.893,20.457-23.631,20.457h-65.5V54.359h111.543
		c2.372,0,4.435,0.957,6.021,2.698C279.919,58.806,280.716,61.183,280.395,63.399z"/>
	<path fill="#FEF3F5" d="M196.931,213.478h-24.742l2.22,2.383c3.171,3.008,3.171,8.083,0,11.091c-3.01,3.186-8.086,3.186-11.093,0
		l-2.387-2.371l-13.477-13.475c-3.171-3.024-3.171-8.101,0-11.107l15.863-15.852c3.007-3.186,8.083-3.186,11.093,0
		c3.171,3.008,3.171,8.083,0,11.097l-2.22,2.383h24.742c6.027,0,9.828-6.662,6.817-11.893c-2.223-3.81-0.79-8.564,2.853-10.787
		c3.808-2.229,8.723-0.963,10.948,2.847C226.583,193.656,215.323,213.478,196.931,213.478z"/>
	<path fill="#D6ECED" d="M196.931,213.478h-24.742l2.22,2.383c3.171,3.008,3.171,8.083,0,11.091c-3.01,3.186-8.086,3.186-11.093,0
		l-2.387-2.371v-38.063l2.387-2.371c3.007-3.186,8.083-3.186,11.093,0c3.171,3.008,3.171,8.083,0,11.097l-2.22,2.383h24.742
		c6.027,0,9.828-6.662,6.817-11.893c-2.223-3.81-0.79-8.564,2.853-10.787c3.808-2.229,8.723-0.963,10.948,2.847
		C226.583,193.656,215.323,213.478,196.931,213.478z"/>
	<path fill="#FEF3F5" d="M210.408,137.359l-5.715,21.724c-1.105,3.964-5.225,6.817-9.67,5.551l-21.721-5.711
		c-4.288-1.105-6.659-5.558-5.554-9.67c1.105-4.292,5.394-6.817,9.67-5.712l2.864,0.796l-12.534-21.414
		c-1.587-2.692-4.122-4.118-6.82-4.118c-2.695,0-5.394,1.426-6.98,4.118c-2.217,3.804-7.138,5.07-10.939,2.854
		c-3.801-2.217-5.072-6.972-2.855-10.782c4.601-8.089,12.689-12.053,20.775-12.053s15.863,3.964,20.46,12.053l12.844,21.724
		l0.951-3.328c1.105-4.285,5.558-6.817,9.67-5.706C209.145,128.795,211.674,133.229,210.408,137.359z"/>
	<path fill="#D6ECED" d="M210.408,137.359l-5.715,21.724c-1.105,3.964-5.225,6.817-9.67,5.551l-21.721-5.711
		c-4.288-1.105-6.659-5.558-5.554-9.67c1.105-4.292,5.394-6.817,9.67-5.712l2.864,0.796l-12.534-21.414
		c-1.587-2.692-4.122-4.118-6.82-4.118v-15.863c8.086,0,15.863,3.964,20.46,12.053l12.844,21.724l0.951-3.328
		c1.105-4.285,5.558-6.817,9.67-5.706C209.145,128.795,211.674,133.229,210.408,137.359z"/>
	<path fill="#FEF3F5" d="M146.524,163.196l-5.807-21.658l0,0c-1.1-4.089-5.468-6.722-9.708-5.604l-21.664,5.801
		c-4.223,1.129-6.731,5.479-5.607,9.705c1.132,4.232,5.479,6.764,9.717,5.611l3.204-0.862l-12.493,21.699
		c-9.069,15.875,2.396,35.59,20.656,35.59c4.384,0,7.926-3.549,7.926-7.929s-3.542-7.923-7.926-7.923
		c-6.101,0-9.896-6.591-6.897-11.839l12.439-21.635l0.845,3.145c1.146,4.262,5.506,6.74,9.717,5.61
		C145.146,171.784,147.666,167.434,146.524,163.196z"/>
	<path fill="#FCC010" d="M272.472,22.646H49.386c-13.159,0-23.786,10.627-23.786,23.786v15.862c0,4.434,3.489,7.923,7.929,7.923
		h254.801c4.439,0,7.929-3.489,7.929-7.923V46.432C296.258,33.272,285.631,22.646,272.472,22.646z"/>
	<path fill="#F59E19" d="M296.258,46.432v15.862c0,4.434-3.489,7.923-7.929,7.923h-127.4V22.646h111.543
		C285.631,22.646,296.258,33.272,296.258,46.432z"/>
</g>
</svg>
