<?xml version="1.0" encoding="utf-8"?>
<!-- Generator: Adobe Illustrator 16.0.0, SVG Export Plug-In . SVG Version: 6.00 Build 0)  -->
<!DOCTYPE svg PUBLIC "-//W3C//DTD SVG 1.1//EN" "http://www.w3.org/Graphics/SVG/1.1/DTD/svg11.dtd">
<svg version="1.1" id="Capa_1" xmlns="http://www.w3.org/2000/svg" xmlns:xlink="http://www.w3.org/1999/xlink" x="0px" y="0px"
	 width="315.953px" height="315.956px" viewBox="0 0 315.953 315.956" enable-background="new 0 0 315.953 315.956"
	 xml:space="preserve">
<g>
	<path fill="#49C1F0" d="M289.948,100.111l-74.931-77.813c-2.449-2.551-6.194-3.344-9.454-2.028c-3.271,1.326-5.42,4.495-5.42,8.025
		v37.462h-2.876c-61.977,0-112.398,50.422-112.398,112.399v17.293c0,4.01,2.821,7.354,6.729,8.26
		c0.637,0.15,1.267,0.234,1.903,0.234c3.271,0,6.398-1.915,7.894-4.91c16.213-32.433,48.801-52.577,85.057-52.577h13.692v37.463
		c0,3.529,2.148,6.698,5.42,8.025c3.241,1.302,7.005,0.516,9.454-2.029l74.931-77.812
		C293.178,108.761,293.178,103.454,289.948,100.111z"/>
	<path fill="#DADADA" d="M257.786,296.313H50.282c-19.064,0-34.581-15.511-34.581-34.581V100.345
		c0-19.07,15.517-34.587,34.581-34.587h34.587c6.375,0,11.524,5.162,11.524,11.531c0,6.362-5.149,11.525-11.524,11.525H50.282
		c-6.363,0-11.525,5.174-11.525,11.53v161.387c0,6.351,5.162,11.531,11.525,11.531h207.504c6.363,0,11.525-5.181,11.525-11.531
		v-92.219c0-6.368,5.156-11.53,11.525-11.53c6.38,0,11.53,5.162,11.53,11.53v92.219
		C292.367,280.802,276.851,296.313,257.786,296.313z"/>
</g>
<path fill="#C6C6C6" d="M269.312,193.241v68.49c0,6.351-5.162,11.531-11.525,11.531H50.282c-6.363,0-11.525-5.181-11.525-11.531
	v-68.49H15.701v68.49c0,19.07,15.517,34.581,34.581,34.581h207.504c19.064,0,34.581-15.511,34.581-34.581v-68.49H269.312z"/>
</svg>
