<?xml version="1.0" encoding="utf-8"?>
<!-- Generator: Adobe Illustrator 16.0.0, SVG Export Plug-In . SVG Version: 6.00 Build 0)  -->
<!DOCTYPE svg PUBLIC "-//W3C//DTD SVG 1.1//EN" "http://www.w3.org/Graphics/SVG/1.1/DTD/svg11.dtd">
<svg version="1.1" id="Capa_1" xmlns="http://www.w3.org/2000/svg" xmlns:xlink="http://www.w3.org/1999/xlink" x="0px" y="0px"
	 width="315.953px" height="315.956px" viewBox="0 0 315.953 315.956" enable-background="new 0 0 315.953 315.956"
	 xml:space="preserve">
<g>
	<path fill="#52BFCF" d="M208.705,67.215l-26.544-18.959c-2.072-13.949-14.13-24.687-28.647-24.687H52.289
		c-15.975,0-28.967,12.991-28.967,28.966v101.228c0,15.97,12.992,28.967,28.967,28.967h88.571c4.354,0,7.877-3.527,7.877-7.877
		c0-2.178-0.879-4.146-2.307-5.57l22.603-22.602c1.425,1.425,3.395,2.306,5.567,2.306c4.35,0,7.876-3.526,7.876-7.876V98.768
		l26.229-18.737c2.066-1.471,3.299-3.859,3.299-6.405C212.004,71.08,210.771,68.691,208.705,67.215z"/>
	<path fill="#02ADB3" d="M208.705,67.215l-26.544-18.959c-2.072-13.949-14.13-24.687-28.647-24.687h-50.051v159.16h37.397
		c4.354,0,7.877-3.527,7.877-7.877c0-2.178-0.879-4.146-2.307-5.57l22.603-22.602c1.425,1.425,3.395,2.306,5.567,2.306
		c4.35,0,7.876-3.526,7.876-7.876V98.768l26.229-18.737c2.066-1.471,3.299-3.859,3.299-6.405
		C212.004,71.08,210.771,68.691,208.705,67.215z"/>
	<path fill="#FEF3F5" d="M127.096,125.352c-6.294,0-12.183-1.734-17.225-4.759c6.081-6.568,10.125-15.041,11.105-24.424h6.119
		c2.452,0,4.443-1.985,4.443-4.443c0-2.446-1.991-4.438-4.443-4.438h-19.753V76.504c0-2.458-1.991-4.443-4.443-4.443
		s-4.443,1.985-4.443,4.443v10.784H78.704c-2.453,0-4.443,1.991-4.443,4.438c0,2.458,1.99,4.443,4.443,4.443h6.119
		c0.978,9.383,5.021,17.855,11.104,24.424c-5.041,3.019-10.93,4.759-17.224,4.759c-2.453,0-4.443,1.991-4.443,4.443
		s1.99,4.443,4.443,4.443c8.982,0,17.323-2.814,24.195-7.591c6.873,4.782,15.21,7.591,24.196,7.591c2.452,0,4.443-1.991,4.443-4.443
		S129.548,125.352,127.096,125.352z M112.025,96.169c-0.966,7.281-4.265,13.832-9.126,18.871c-4.857-5.039-8.159-11.59-9.126-18.871
		H112.025z"/>
	<path fill="#72B95A" d="M263.178,133.233H161.953c-15.972,0-28.966,12.991-28.966,28.961v55.001l-26.229,18.731
		c-2.066,1.478-3.296,3.865-3.296,6.411c0,2.54,1.229,4.928,3.296,6.405l26.544,18.958c2.075,13.955,14.13,24.687,28.65,24.687
		h101.225c15.972,0,28.964-12.991,28.964-28.96V162.194C292.142,146.225,279.149,133.233,263.178,133.233z"/>
	<path fill="#1AA95F" d="M263.178,133.233h-50.613v159.154h50.613c15.972,0,28.964-12.991,28.964-28.96V162.194
		C292.142,146.225,279.149,133.233,263.178,133.233z"/>
	<path fill="#FEF3F5" d="M189.068,239.342c0-0.169,0.088-0.502,0.17-0.84l16.284-53.063c0.759-2.534,3.877-3.714,7.001-3.714
		c3.205,0,6.326,1.18,7.082,3.714l16.285,53.063c0.081,0.338,0.169,0.589,0.169,0.84c0,2.616-3.965,4.555-6.919,4.555
		c-1.856,0-3.287-0.59-3.714-2.189l-3.202-11.223h-19.32l-3.206,11.223c-0.42,1.6-1.854,2.189-3.711,2.189
		C193.033,243.896,189.068,242.04,189.068,239.342z M219.862,221.879l-7.339-25.896l-7.34,25.896H219.862z"/>
	<g>
		<path fill="#D6ECED" d="M127.096,96.169c2.452,0,4.443-1.985,4.443-4.443c0-2.446-1.991-4.438-4.443-4.438h-19.753V76.504
			c0-2.266-1.693-4.122-3.88-4.402v24.067h8.563c-0.928,6.995-4.014,13.313-8.563,18.264v12.595
			c6.765,4.542,14.89,7.211,23.633,7.211c2.452,0,4.443-1.991,4.443-4.443s-1.991-4.443-4.443-4.443
			c-6.294,0-12.183-1.74-17.225-4.759c6.081-6.568,10.125-15.041,11.105-24.424H127.096z"/>
		<path fill="#D6ECED" d="M235.891,238.502l-16.285-53.063c-0.753-2.522-3.851-3.708-7.041-3.714v14.404l7.298,25.75h-7.298v8.605
			h9.66l3.202,11.223c0.427,1.6,1.857,2.189,3.714,2.189c2.954,0,6.919-1.938,6.919-4.555
			C236.06,239.091,235.978,238.84,235.891,238.502z"/>
	</g>
</g>
</svg>
