<?xml version="1.0" encoding="utf-8"?>
<!-- Generator: Adobe Illustrator 16.0.0, SVG Export Plug-In . SVG Version: 6.00 Build 0)  -->
<!DOCTYPE svg PUBLIC "-//W3C//DTD SVG 1.1//EN" "http://www.w3.org/Graphics/SVG/1.1/DTD/svg11.dtd">
<svg version="1.1" id="Capa_1" xmlns="http://www.w3.org/2000/svg" xmlns:xlink="http://www.w3.org/1999/xlink" x="0px" y="0px"
	 width="315.953px" height="315.956px" viewBox="0 0 315.953 315.956" enable-background="new 0 0 315.953 315.956"
	 xml:space="preserve">
<g>
	<g>
		<path fill="#49C1F0" d="M112.134,157.979h186.404c0,1.886-0.545,3.684-1.524,5.208c0.979-1.527,1.527-3.327,1.527-5.22
			c0-3.775-2.189-7.201-5.618-8.792L41.161,32.979c-4.004-1.816-8.792-0.731-11.581,2.713c-2.802,3.448-2.902,8.351-0.225,11.89
			l82.784,110.387"/>
		<path fill="#49C1F0" d="M112.14,157.968"/>
		<path fill="#49C1F0" d="M295.238,165.247c0.184-0.161,0.345-0.345,0.515-0.523C295.583,164.902,295.422,165.086,295.238,165.247z"
			/>
		<path fill="#49C1F0" d="M296.201,164.275c0.256-0.297,0.489-0.62,0.706-0.948C296.69,163.655,296.457,163.979,296.201,164.275z"/>
	</g>
	<path fill="#27ABE2" d="M112.134,157.979L29.355,268.354c-2.677,3.545-2.577,8.459,0.211,11.89
		c1.881,2.349,4.683,3.604,7.532,3.604c1.375,0,2.746-0.295,4.048-0.896l251.751-116.196c3.453-1.586,5.64-5.003,5.64-8.775H112.134
		z"/>
</g>
</svg>
