<?xml version="1.0" encoding="utf-8"?>
<!-- Generator: Adobe Illustrator 16.0.0, SVG Export Plug-In . SVG Version: 6.00 Build 0)  -->
<!DOCTYPE svg PUBLIC "-//W3C//DTD SVG 1.1//EN" "http://www.w3.org/Graphics/SVG/1.1/DTD/svg11.dtd">
<svg version="1.1" id="Capa_1" xmlns="http://www.w3.org/2000/svg" xmlns:xlink="http://www.w3.org/1999/xlink" x="0px" y="0px"
	 width="315.953px" height="315.956px" viewBox="0 0 315.953 315.956" enable-background="new 0 0 315.953 315.956"
	 xml:space="preserve">
<g>
	<path fill="#BA3A2D" d="M243.977,26.102L26.093,243.989c-9.503,9.5-9.503,24.908,0,34.396l11.47,11.467
		c9.5,9.503,24.905,9.503,34.396,0L289.858,71.983c9.506-9.503,9.506-24.912,0-34.396L278.395,26.12
		C268.892,16.602,253.482,16.602,243.977,26.102z"/>
	<path fill="#E9463A" d="M289.858,243.989L71.971,26.102c-9.503-9.5-24.908-9.5-34.394,0L26.093,37.568
		c-9.503,9.503-9.503,24.912,0,34.396l217.884,217.888c9.506,9.503,24.915,9.503,34.399,0l11.467-11.467
		C299.364,268.897,299.364,253.489,289.858,243.989z"/>
</g>
</svg>
