<?xml version="1.0" encoding="utf-8"?>
<!-- Generator: Adobe Illustrator 16.0.0, SVG Export Plug-In . SVG Version: 6.00 Build 0)  -->
<!DOCTYPE svg PUBLIC "-//W3C//DTD SVG 1.1//EN" "http://www.w3.org/Graphics/SVG/1.1/DTD/svg11.dtd">
<svg version="1.1" id="Capa_1" xmlns="http://www.w3.org/2000/svg" xmlns:xlink="http://www.w3.org/1999/xlink" x="0px" y="0px"
	 width="315.953px" height="315.956px" viewBox="0 0 315.953 315.956" enable-background="new 0 0 315.953 315.956"
	 xml:space="preserve">
<g>
	<path fill="#49C1F0" d="M274.656,119.185c0-2.107,0.361-4.573,0.361-6.678c0-51.398-41.889-93.288-93.287-93.288
		c-30.596,0-58.399,14.447-76.003,39.076c-6.679-2.469-14.083-3.521-21.452-3.521c-34.846,0-63.379,28.512-63.379,63.359
		c0,5.261,0.693,10.561,2.107,15.822c-10.199,11.637-15.499,26.41-15.499,41.889c0,35.552,29.221,64.772,64.79,64.772h9.147
		c-0.362-2.104-0.688-4.57-0.688-6.678v-4.248c0-42.577,34.481-77.076,77.059-77.076c42.576,0,77.094,34.499,77.094,77.076v4.574
		c0,2.125-0.361,4.591-0.724,6.698h9.51c17.239,0,33.429-6.698,45.736-19.003c12.337-12.325,19.018-28.512,19.018-45.754
		C308.447,152.614,295.417,130.801,274.656,119.185z"/>
	<path fill="#DADADA" d="M157.813,151.218c-0.027,0-0.051,0-0.074,0v156.981c0.023,0,0.047,0.006,0.074,0.006
		c39.055,0,71.794-28.877,77.781-67.242c0.332-2.107,0.693-4.573,0.693-6.698v-4.574
		C236.288,186.408,201.116,151.218,157.813,151.218z"/>
	<path fill="#FEF3F5" d="M157.976,151.221c-0.053,0-0.106-0.003-0.162-0.003c-43.268,0-78.476,35.19-78.476,78.473v4.248
		c0,2.107,0.361,4.573,0.69,6.678c5.297,38.712,38.364,67.589,77.785,67.589c0.056,0,0.106-0.01,0.162-0.01V151.221z"/>
	<path fill="#5D6067" d="M150.983,268.23c3.845,3.521,9.838,3.521,13.722,0l23.92-20.417c4.609-3.865,4.936-10.562,1.05-14.773
		c-3.848-4.57-10.522-4.936-14.773-1.049l-6.676,5.626v-36.264c0-5.97-4.576-10.547-10.563-10.547s-10.564,4.577-10.564,10.547
		v35.898l-6.675-5.626c-2.104-1.764-4.577-2.451-6.682-2.451c-2.831,0-5.987,1.399-8.092,3.865
		c-3.886,4.212-3.195,10.908,1.378,14.773L150.983,268.23z"/>
</g>
</svg>
