<?xml version="1.0" encoding="utf-8"?>
<!-- Generator: Adobe Illustrator 16.0.0, SVG Export Plug-In . SVG Version: 6.00 Build 0)  -->
<!DOCTYPE svg PUBLIC "-//W3C//DTD SVG 1.1//EN" "http://www.w3.org/Graphics/SVG/1.1/DTD/svg11.dtd">
<svg version="1.1" id="Capa_1" xmlns="http://www.w3.org/2000/svg" xmlns:xlink="http://www.w3.org/1999/xlink" x="0px" y="0px"
	 width="315.953px" height="315.956px" viewBox="0 0 315.953 315.956" enable-background="new 0 0 315.953 315.956"
	 xml:space="preserve">
<g>
	<path fill="#49C1F0" d="M89.342,92.583c0,40.23,32.717,72.964,72.956,72.964c40.233,0,72.95-32.733,72.95-72.964
		c0-40.232-32.717-72.956-72.95-72.956C122.059,19.627,89.342,52.351,89.342,92.583z"/>
	<path fill="#27ABE2" d="M235.248,92.583c0-40.232-32.717-72.956-72.95-72.956v145.92
		C202.531,165.547,235.248,132.813,235.248,92.583z"/>
	<path fill="#49C1F0" d="M40.703,288.222c0,4.479,3.623,8.107,8.104,8.107h226.98c4.476,0,8.099-3.628,8.099-8.107
		c0-58.108-47.275-106.467-105.374-106.467h-32.436C87.979,181.755,40.703,230.113,40.703,288.222z"/>
	<path fill="#27ABE2" d="M178.513,181.755h-16.215v114.574h113.49c4.476,0,8.099-3.628,8.099-8.107
		C283.887,230.113,236.611,181.755,178.513,181.755z"/>
</g>
</svg>
