<?xml version="1.0" encoding="utf-8"?>
<!-- Generator: Adobe Illustrator 16.0.0, SVG Export Plug-In . SVG Version: 6.00 Build 0)  -->
<!DOCTYPE svg PUBLIC "-//W3C//DTD SVG 1.1//EN" "http://www.w3.org/Graphics/SVG/1.1/DTD/svg11.dtd">
<svg version="1.1" id="Capa_1" xmlns="http://www.w3.org/2000/svg" xmlns:xlink="http://www.w3.org/1999/xlink" x="0px" y="0px"
	 width="315.953px" height="315.956px" viewBox="0 0 315.953 315.956" enable-background="new 0 0 315.953 315.956"
	 xml:space="preserve">
<path fill="#DADADA" d="M300.327,279.343l-42.535-159.828c-1.18-4.786-5.38-8.377-10.753-9.576l-59.257-11.971
	c-1.802-0.603-3.607-0.603-5.412,0l-52.072,10.775c-1.767,0.59-3.575,0.59-5.377,0L75.243,97.968
	c-6.005-1.192-13.772,2.988-15.58,8.989L15.396,252.991c-2.392,8.989,0,16.76,6.559,19.151l82.013,28.744
	c2.392,1.195,5.411,1.195,8.393,0l80.801-26.333c2.392-0.609,5.376-0.609,7.771,0l84.403,26.333
	C296.717,304.477,304.488,293.705,300.327,279.343z"/>
<polygon fill="#52BFCF" points="110.559,279.343 30.938,252.991 70.454,106.957 126.723,120.104 "/>
<polygon fill="#FCC010" points="195.553,252.991 110.559,279.343 126.723,120.104 185.98,106.957 "/>
<polygon fill="#02ADB3" points="284.156,279.343 195.553,252.991 185.98,106.957 247.039,120.104 "/>
<path fill="#5D6067" d="M93.802,14.173c-26.958,0-48.501,21.543-48.501,48.482c0,31.136,48.501,84.407,48.501,84.407
	s48.502-51.486,48.502-84.407C141.675,35.716,120.132,14.173,93.802,14.173z"/>
<path fill="#FFFFFF" d="M93.802,35.716c14.885,0,26.92,12.054,26.92,26.939c0,14.866-12.035,26.92-26.92,26.92
	s-26.958-12.054-26.958-26.92C66.844,47.771,78.917,35.716,93.802,35.716z"/>
<path fill="#E9463A" d="M244.02,91.38c-26.923,0-48.467,21.56-48.467,48.482c0,31.135,48.467,84.404,48.467,84.404
	s48.498-51.48,48.498-84.404C291.928,112.939,270.384,91.38,244.02,91.38z"/>
<path fill="#FFFFFF" d="M244.02,112.939c14.917,0,26.954,12.054,26.954,26.923c0,14.882-12.037,26.936-26.954,26.936
	c-14.85,0-26.923-12.054-26.923-26.936C217.097,124.993,229.17,112.939,244.02,112.939z"/>
</svg>
