<?xml version="1.0" encoding="utf-8"?>
<!-- Generator: Adobe Illustrator 16.0.0, SVG Export Plug-In . SVG Version: 6.00 Build 0)  -->
<!DOCTYPE svg PUBLIC "-//W3C//DTD SVG 1.1//EN" "http://www.w3.org/Graphics/SVG/1.1/DTD/svg11.dtd">
<svg version="1.1" id="Capa_1" xmlns="http://www.w3.org/2000/svg" xmlns:xlink="http://www.w3.org/1999/xlink" x="0px" y="0px"
	 width="315.953px" height="315.956px" viewBox="0 0 315.953 315.956" enable-background="new 0 0 315.953 315.956"
	 xml:space="preserve">
<g>
	<path fill="#5D6067" d="M221.444,257.381H58.574c-15.192,0-27.54-12.33-27.54-27.521c0-15.173,12.348-27.52,27.54-27.52h53.898
		c24.485,0,44.391-19.895,44.391-44.362s-19.905-44.38-44.391-44.38H58.574c-4.648,0-8.428,3.782-8.428,8.446
		c0,4.632,3.779,8.411,8.428,8.411h53.898c15.188,0,27.534,12.347,27.534,27.522s-12.347,27.522-27.534,27.522H58.574
		c-24.456,0-44.362,19.889-44.362,44.359s19.906,44.377,44.362,44.377h162.87c4.649,0,8.394-3.779,8.394-8.429
		C229.838,261.163,226.094,257.381,221.444,257.381z"/>
	<path fill="#54585D" d="M221.444,257.381h-63.468v16.856h63.468c4.649,0,8.394-3.779,8.394-8.429
		C229.838,261.163,226.094,257.381,221.444,257.381z"/>
	<path fill="#BA3A2D" d="M239.414,292.204c-14.566,0-26.397-11.846-26.397-26.396s11.831-26.393,26.397-26.393
		c14.567,0,26.393,11.843,26.393,26.393S253.981,292.204,239.414,292.204z"/>
	<path fill="#427DC0" d="M40.604,148.423c-14.566,0-26.392-11.846-26.392-26.378c0-14.567,11.826-26.41,26.392-26.41
		c14.533,0,26.393,11.843,26.393,26.41C66.997,136.577,55.138,148.423,40.604,148.423z"/>
	<path fill="#5D6067" d="M40.604,112.492c-4.648,0-8.428-3.78-8.428-8.429V32.164c0-4.646,3.779-8.411,8.428-8.411
		c4.649,0,8.429,3.765,8.429,8.411v71.899C49.033,108.712,45.254,112.492,40.604,112.492z"/>
	<path fill="#427DC0" d="M94.503,76.541H40.604c-4.648,0-8.428-3.78-8.428-8.429V32.164c0-4.646,3.779-8.411,8.428-8.411h53.898
		c4.648,0,8.428,3.765,8.428,8.411v35.948C102.931,72.761,99.151,76.541,94.503,76.541z"/>
	<path fill="#E9463A" d="M239.414,41.72c-34.374,0-62.36,27.972-62.36,62.344c0,18.555,8.115,35.847,22.265,47.741l32.601,63.903
		c1.427,2.829,4.302,4.614,7.495,4.614c3.153,0,6.069-1.785,7.489-4.614l32.602-63.903c14.155-11.895,22.235-29.187,22.235-47.741
		C301.74,69.691,273.783,41.72,239.414,41.72z M239.414,130.456c-14.566,0-26.397-11.843-26.397-26.393s11.831-26.396,26.397-26.396
		c14.567,0,26.393,11.846,26.393,26.396S253.981,130.456,239.414,130.456z"/>
	<path fill="#BA3A2D" d="M301.74,104.063c0,18.555-8.08,35.847-22.235,47.741l-32.602,63.903c-1.42,2.829-4.336,4.614-7.489,4.614
		v-89.866c14.567,0,26.393-11.843,26.393-26.393s-11.825-26.396-26.393-26.396V41.72C273.783,41.72,301.74,69.691,301.74,104.063z"
		/>
</g>
</svg>
