<?xml version="1.0" encoding="utf-8"?>
<!-- Generator: Adobe Illustrator 16.0.0, SVG Export Plug-In . SVG Version: 6.00 Build 0)  -->
<!DOCTYPE svg PUBLIC "-//W3C//DTD SVG 1.1//EN" "http://www.w3.org/Graphics/SVG/1.1/DTD/svg11.dtd">
<svg version="1.1" id="Capa_1" xmlns="http://www.w3.org/2000/svg" xmlns:xlink="http://www.w3.org/1999/xlink" x="0px" y="0px"
	 width="315.953px" height="315.956px" viewBox="0 0 315.953 315.956" enable-background="new 0 0 315.953 315.956"
	 xml:space="preserve">
<g>
	<path fill="#4F4D60" d="M200.88,157.614v37.309c-14.43-3.943-28.865-8.954-43.295-12.893v-37.31
		C172.015,148.659,186.45,153.67,200.88,157.614L200.88,157.614z"/>
	<path fill="#4F4D60" d="M114.297,138.271v37.31c-14.43,0.355-28.854,3.938-43.282,12.893l-12.652-18.654l12.652-18.654
		C85.443,142.21,99.867,138.627,114.297,138.271z"/>
	<path fill="#DADADA" d="M157.585,144.721v37.31c-14.424-3.944-28.858-6.805-43.288-6.449v-37.31
		C128.727,137.91,143.161,140.777,157.585,144.721L157.585,144.721z"/>
	<path fill="#4F4D60" d="M157.585,107.435v37.31c-14.424-3.938-28.858-6.805-43.288-6.443v-37.31
		C128.727,100.63,143.161,103.491,157.585,107.435z"/>
	<path fill="#4F4D60" d="M114.297,63.642v37.315c-14.43,0.35-28.854,3.933-43.282,12.893L58.362,93.688l12.652-17.152
		C85.443,67.58,99.867,64.003,114.297,63.642z"/>
	<path fill="#DADADA" d="M157.585,70.154v37.304c-14.424-3.933-28.858-6.805-43.288-6.443v-37.31
		C128.727,63.344,143.161,66.21,157.585,70.154L157.585,70.154z"/>
	<path fill="#4F4D60" d="M157.585,32.868v37.31c-14.424-3.938-28.858-6.811-43.288-6.449v-37.31
		C128.727,26.063,143.161,28.924,157.585,32.868z"/>
	<g>
		<path fill="#DADADA" d="M114.297,100.963v37.303c-14.43,0.355-28.854,3.938-43.282,12.894l-12.652-19.79l12.652-17.52
			C85.443,104.896,99.867,101.313,114.297,100.963z"/>
		<path fill="#DADADA" d="M114.297,26.333v37.309c-14.43,0.351-28.854,3.934-43.282,12.888L58.362,55.76l12.652-16.534
			C85.443,30.271,99.867,26.688,114.297,26.333z"/>
		<path fill="#DADADA" d="M244.162,164.058v37.31c-14.424,0.361-28.854-2.5-43.282-6.444v-37.309
			C215.309,161.553,229.738,164.419,244.162,164.058z"/>
	</g>
	<path fill="#4F4D60" d="M287.456,151.165v32.385c0,3.112-1.668,6.002-4.402,7.492c-12.956,7.08-25.924,10.01-38.892,10.325v-37.31
		C258.604,163.702,273.026,160.119,287.456,151.165L287.456,151.165z"/>
	<path fill="#4F4D60" d="M244.162,126.761v37.309c-14.424,0.361-28.854-2.499-43.282-6.449v-37.31
		C215.309,124.255,229.738,127.121,244.162,126.761z"/>
	<path fill="#DADADA" d="M244.162,164.069v-37.309c14.441-0.355,28.864-3.938,43.294-12.894v37.298
		c-14.43,8.96-28.853,12.537-43.294,12.893"/>
	<path fill="#4F4D60" d="M244.162,126.771V89.463c14.441-0.355,28.864-3.938,43.294-12.894v37.298
		c-14.43,8.955-28.853,12.538-43.294,12.894"/>
	<path fill="#DADADA" d="M244.162,89.463v37.309c-14.424,0.361-28.854-2.505-43.282-6.443V83.014
		C215.309,86.951,229.738,89.824,244.162,89.463z"/>
	<path fill="#4F4D60" d="M244.162,52.165v37.304c-14.424,0.36-28.854-2.5-43.282-6.444V45.716
		C215.309,49.654,229.738,52.521,244.162,52.165L244.162,52.165z"/>
	<path fill="#DADADA" d="M276.914,44.89c-10.921,4.891-21.831,7.006-32.752,7.275v37.298c14.441-0.355,28.864-3.938,43.294-12.894
		V51.672C287.456,46.243,281.861,42.672,276.914,44.89L276.914,44.89z"/>
	<path fill="#DADADA" d="M200.88,120.3v37.309c-14.43-3.938-28.865-8.954-43.295-12.893v-37.31
		C172.015,111.351,186.45,116.361,200.88,120.3z"/>
	<path fill="#4F4D60" d="M200.88,82.99v37.31c-14.43-3.944-28.865-8.955-43.295-12.894V70.098
		C172.015,74.036,186.45,79.052,200.88,82.99z"/>
	<path fill="#DADADA" d="M200.88,45.676v37.309c-14.43-3.933-28.865-8.948-43.295-12.887V32.782
		C172.015,36.727,186.45,41.743,200.88,45.676z"/>
	<path fill="#433E4F" d="M58.362,169.819l12.652,18.654c5.457-3.388,10.921-6.008,16.384-7.974v-37.31
		c-5.463,1.967-10.927,4.586-16.384,7.975L58.362,169.819z"/>
	<path fill="#C6C6C6" d="M58.362,131.369l12.652,19.79c5.457-3.388,10.921-6.008,16.384-7.975v-37.309
		c-5.463,1.966-10.927,4.586-16.384,7.974L58.362,131.369z"/>
	<path fill="#433E4F" d="M58.362,93.688l12.652,20.162c5.457-3.394,10.921-6.014,16.384-7.979v-37.31
		c-5.463,1.967-10.927,4.587-16.384,7.975L58.362,93.688z"/>
	<path fill="#C6C6C6" d="M58.362,55.76l12.652,20.77c5.457-3.388,10.921-6.002,16.384-7.975V39.226c0-2.631-0.453-5.153-1.267-7.51
		c-5.039,1.909-10.078,4.38-15.117,7.51L58.362,55.76z"/>
	<path fill="#427DC0" d="M64.444,32.662H52.273c-3.629,0-6.569,2.936-6.569,6.563v252.032c0,3.629,2.94,6.569,6.569,6.569h12.171
		c3.629,0,6.564-2.94,6.564-6.569V39.226C71.015,35.598,68.073,32.662,64.444,32.662L64.444,32.662z"/>
</g>
</svg>
