<?xml version="1.0" encoding="utf-8"?>
<!-- Generator: Adobe Illustrator 16.0.0, SVG Export Plug-In . SVG Version: 6.00 Build 0)  -->
<!DOCTYPE svg PUBLIC "-//W3C//DTD SVG 1.1//EN" "http://www.w3.org/Graphics/SVG/1.1/DTD/svg11.dtd">
<svg version="1.1" id="Capa_1" xmlns="http://www.w3.org/2000/svg" xmlns:xlink="http://www.w3.org/1999/xlink" x="0px" y="0px"
	 width="315.953px" height="315.956px" viewBox="0 0 315.953 315.956" enable-background="new 0 0 315.953 315.956"
	 xml:space="preserve">
<path fill="#49C1F0" d="M267.484,123.392c0-1.98,0.345-4.295,0.345-6.271c0-48.239-39.314-87.554-87.554-87.554
	c-28.718,0-54.815,13.56-71.335,36.678c-6.271-2.32-13.22-3.306-20.136-3.306c-32.702,0-59.479,26.757-59.479,59.462
	c0,4.94,0.646,9.915,1.976,14.851c-9.573,10.922-14.547,24.787-14.547,39.314c0,33.366,27.424,60.791,60.811,60.791h8.585
	c-0.342-1.975-0.65-4.29-0.65-6.265v-3.989c0-39.96,32.365-72.337,72.325-72.337s72.358,32.377,72.358,72.337v4.295
	c0,1.992-0.339,4.307-0.679,6.287h8.925c16.18,0,31.375-6.287,42.92-17.838c11.584-11.567,17.849-26.757,17.849-42.942
	C299.198,154.767,286.975,134.292,267.484,123.392z"/>
<path fill="#DADADA" d="M157.825,153.454c-0.022,0-0.048,0-0.072,0v147.332c0.024,0,0.05,0.006,0.072,0.006
	c36.655,0,67.385-27.102,73.004-63.106c0.306-1.98,0.651-4.295,0.651-6.287v-4.295C231.48,186.481,198.464,153.454,157.825,153.454z
	"/>
<path fill="#FEF3F5" d="M157.976,153.459c-0.051,0-0.101-0.005-0.15-0.005c-40.605,0-73.649,33.027-73.649,73.649v3.989
	c0,1.975,0.339,4.29,0.645,6.265c4.975,36.333,36.008,63.435,73.005,63.435c0.05,0,0.1-0.006,0.15-0.006V153.459z"/>
<path fill="#5D6067" d="M164.09,193.086c-3.605-3.3-9.23-3.3-12.875,0l-22.45,19.162c-4.326,3.627-4.632,9.914-0.987,13.865
	c3.613,4.289,9.879,4.629,13.865,0.984l6.268-5.28v34.034c0,5.604,4.293,9.898,9.915,9.898c5.619,0,9.915-4.295,9.915-9.893
	l-0.003-33.7l6.268,5.28c1.976,1.657,4.295,2.303,6.268,2.303c2.66,0.006,5.622-1.313,7.598-3.627
	c3.645-3.956,2.999-10.238-1.294-13.865L164.09,193.086z"/>
</svg>
