<?xml version="1.0" encoding="utf-8"?>
<!-- Generator: Adobe Illustrator 16.0.0, SVG Export Plug-In . SVG Version: 6.00 Build 0)  -->
<!DOCTYPE svg PUBLIC "-//W3C//DTD SVG 1.1//EN" "http://www.w3.org/Graphics/SVG/1.1/DTD/svg11.dtd">
<svg version="1.1" id="Capa_1" xmlns="http://www.w3.org/2000/svg" xmlns:xlink="http://www.w3.org/1999/xlink" x="0px" y="0px"
	 width="315.953px" height="315.956px" viewBox="0 0 315.953 315.956" enable-background="new 0 0 315.953 315.956"
	 xml:space="preserve">
<g>
	<path fill="#FEF3F5" d="M275.918,73.952c-76.155-4.839-152.306-4.839-228.461,0C35.551,74.709,25.79,83.778,24.3,95.619
		c-5.975,47.463-5.975,94.926,0,142.389c1.49,11.84,11.251,20.909,23.157,21.667c76.155,4.838,152.306,4.838,228.461,0
		c11.906-0.758,21.661-9.827,23.151-21.667c5.98-47.463,5.98-94.926,0-142.389C297.579,83.778,287.824,74.709,275.918,73.952z"/>
	<path fill="#DADADA" d="M51.935,259.945c-1.49-0.085-2.987-0.175-4.478-0.271c-11.906-0.758-21.667-9.833-23.157-21.667
		c-5.975-47.463-5.975-94.932,0-142.389c1.49-11.841,11.251-20.91,23.157-21.667c1.496-0.103,2.993-0.192,4.478-0.276
		C45.647,77.732,41.2,84.41,40.215,92.247c-6.257,49.711-6.257,99.422,0,149.126C41.2,249.211,45.647,255.894,51.935,259.945
		L51.935,259.945z"/>
	<g>
		<path fill="#464145" d="M214.055,138.136c2.368,0,4.285-1.912,4.285-4.279c0-2.362-1.917-4.279-4.285-4.279h-28.999
			c-2.362,0-4.279,1.917-4.279,4.279v68.829c0,2.368,1.917,4.285,4.279,4.285h28.999c2.368,0,4.285-1.917,4.285-4.285
			c0-2.362-1.917-4.279-4.285-4.279h-24.714v-25.851h22.574c2.368,0,4.285-1.923,4.285-4.285s-1.917-4.279-4.285-4.279h-22.574
			v-25.855H214.055L214.055,138.136z"/>
		<path fill="#464145" d="M285.366,189.595c-1.809-1.515-4.508-1.28-6.034,0.535c-0.739,0.884-1.539,1.707-2.386,2.458
			c-4.328,3.858-9.779,5.813-16.21,5.813c-16.793,0-30.448-13.662-30.448-30.442c0-16.799,13.655-30.454,30.448-30.454
			c6.106,0,11.99,1.798,17.021,5.199c1.959,1.322,4.621,0.806,5.943-1.154c1.322-1.959,0.812-4.621-1.147-5.943
			c-6.455-4.357-13.998-6.666-21.817-6.666c-21.511,0-39.007,17.502-39.007,39.019c0,21.505,17.496,39.007,39.007,39.007
			c8.469,0,16.048-2.759,21.913-7.981c1.143-1.022,2.242-2.158,3.246-3.354C287.416,193.82,287.182,191.122,285.366,189.595
			L285.366,189.595z"/>
		<path fill="#464145" d="M171.515,151.273c0-12.309-10.477-22.334-23.356-22.334h-18.463c-1.136,0-2.224,0.451-3.029,1.263
			c-0.806,0.805-1.256,1.898-1.25,3.035c0,0,0.023,6.779,0.042,12.278c-0.042,0.223-0.066,0.445-0.066,0.674v56.496
			c0,2.368,1.917,4.285,4.285,4.285c2.356,0,4.279-1.917,4.279-4.285v-29.023c0.631,0,1.311,0,2.02-0.006l28.038,31.86
			c0.848,0.955,2.025,1.454,3.215,1.454c1.004,0,2.02-0.354,2.831-1.076c1.773-1.563,1.947-4.261,0.385-6.04l-23.104-26.247
			c0.289,0,0.565,0,0.812,0C161.038,173.607,171.515,163.589,171.515,151.273L171.515,151.273z M148.158,137.504
			c8.018,0,14.785,6.305,14.785,13.77c0,7.471-6.768,13.775-14.785,13.775c-3.233,0-9.742,0.03-14.076,0.055
			c-0.023-4.285-0.06-10.687-0.06-13.83c0-2.645-0.012-9.315-0.03-13.77H148.158z"/>
	</g>
	<path fill="#E9463A" d="M73.854,134.283c18.59,0,33.664,15.073,33.664,33.675c0,18.59-15.074,33.663-33.664,33.663
		c-18.596,0-33.675-15.073-33.675-33.663C40.179,149.356,55.258,134.283,73.854,134.283z"/>
	<path fill="#BA3A2D" d="M81.415,200.774c-2.435,0.553-4.965,0.854-7.562,0.854c-18.596,0-33.675-15.074-33.675-33.67
		s15.079-33.675,33.675-33.675c2.597,0,5.127,0.294,7.562,0.853c-14.954,3.433-26.108,16.829-26.108,32.822
		S66.461,197.336,81.415,200.774z"/>
</g>
</svg>
