<svg width="473.560009765625px" height="122.02138671875px" xmlns="http://www.w3.org/2000/svg" viewBox="13.219995117187494 13.989306640625003 473.560009765625 122.02138671875" style="background: rgba(0, 0, 0, 0);" preserveAspectRatio="xMidYMid"><defs><linearGradient id="editing-gradow-gradient" x1="0" x2="1" y1="0.5" y2="0.5" gradientUnits="objectBoundingBox"><stop offset="0" stop-color="#f0f"></stop><stop offset="1" stop-color="#0ff"></stop></linearGradient><filter id="editing-gradow-filter" x="-100%" y="-100%" width="300%" height="300%"><feFlood flood-color="#fffcd9" result="flood"></feFlood><feComposite operator="in" in2="SourceAlpha" in="flood" result="shadow"></feComposite><feOffset dx="-4" dy="-4" in="SourceGraphic" result="offset-1"></feOffset><feOffset dx="4" dy="4" in="shadow" result="offset-2"></feOffset><feMerge><feMergeNode in="offset-2"></feMergeNode><feMergeNode in="offset-1"></feMergeNode></feMerge></filter></defs><g filter="url(#editing-gradow-filter)"><g transform="translate(83.08499383926392, 98.9921875)"><path d="M2.69-39.68L2.69-39.68L2.69-39.68Q4.54-43.52 9.70-43.52L9.70-43.52L9.70-43.52Q14.85-43.52 17.25-40.54L17.25-40.54L17.25-40.54Q19.65-37.57 19.65-30.72L19.65-30.72L19.65-7.87L35.20-42.18L42.82-42.18L22.91 0L7.94 0L6.02-30.72L6.02-30.72Q5.82-34.11 4.90-36.42L4.90-36.42L4.90-36.42Q3.97-38.72 2.69-39.68ZM55.62-3.52L55.62-3.52L55.62-3.52Q53.63 1.28 47.30 1.28L47.30 1.28L47.30 1.28Q44.03 1.28 41.98-0.96L41.98-0.96L41.98-0.96Q40.26-2.94 40.26-4.93L40.26-4.93L40.26-4.93Q40.26-10.11 42.62-20.22L42.62-20.22L44.99-32.64L57.98-33.92L54.08-13.70L54.08-13.70Q52.99-8.96 52.99-7.30L52.99-7.30L52.99-7.30Q52.99-3.65 55.62-3.52ZM46.14-41.54L46.14-41.54L46.14-41.54Q46.14-44.03 48.22-45.38L48.22-45.38L48.22-45.38Q50.30-46.72 53.31-46.72L53.31-46.72L53.31-46.72Q56.32-46.72 58.14-45.38L58.14-45.38L58.14-45.38Q59.97-44.03 59.97-41.54L59.97-41.54L59.97-41.54Q59.97-39.04 57.95-37.76L57.95-37.76L57.95-37.76Q55.94-36.48 52.93-36.48L52.93-36.48L52.93-36.48Q49.92-36.48 48.03-37.76L48.03-37.76L48.03-37.76Q46.14-39.04 46.14-41.54ZM63.84-1.92L63.84-1.92L63.84-1.92Q62.34-3.58 61.66-6.21L61.66-6.21L61.66-6.21Q60.99-8.83 60.99-13.12L60.99-13.12L60.99-13.12Q60.99-17.41 62.46-21.31L62.46-21.31L62.46-21.31Q63.94-25.22 66.62-28.03L66.62-28.03L66.62-28.03Q72.13-33.92 81.22-33.92L81.22-33.92L81.22-33.92Q84.48-33.92 86.85-32.83L86.85-32.83L97.79-33.92L93.06-8.96L93.06-8.96Q92.86-8.19 92.86-6.78L92.86-6.78L92.86-6.78Q92.86-5.38 93.73-4.48L93.73-4.48L93.73-4.48Q94.59-3.58 95.87-3.46L95.87-3.46L95.87-3.46Q95.23-1.28 92.90 0L92.90 0L92.90 0Q90.56 1.28 87.94 1.28L87.94 1.28L87.94 1.28Q85.31 1.28 83.55 0.29L83.55 0.29L83.55 0.29Q81.79-0.70 81.28-2.37L81.28-2.37L81.28-2.37Q80.26-0.77 78.08 0.26L78.08 0.26L78.08 0.26Q75.90 1.28 72.99 1.28L72.99 1.28L72.99 1.28Q70.08 1.28 67.71 0.51L67.71 0.51L67.71 0.51Q65.34-0.26 63.84-1.92ZM77.34-27.90L77.34-27.90L77.34-27.90Q76.61-26.75 75.97-24.80L75.97-24.80L75.97-24.80Q75.33-22.85 74.27-17.63L74.27-17.63L74.27-17.63Q73.22-12.42 73.22-8.70L73.22-8.70L73.22-8.70Q73.22-4.99 73.79-3.90L73.79-3.90L73.79-3.90Q74.37-2.82 75.39-2.82L75.39-2.82L75.39-2.82Q77.44-2.82 78.94-4.77L78.94-4.77L78.94-4.77Q80.45-6.72 81.02-10.18L81.02-10.18L84.42-28.93L84.42-28.93Q83.07-30.08 81.50-30.08L81.50-30.08L81.50-30.08Q79.94-30.08 79.01-29.57L79.01-29.57L79.01-29.57Q78.08-29.06 77.34-27.90ZM121.15-33.92L121.15-33.92L121.15-33.92Q123.46-33.92 125.25-33.41L125.25-33.41L125.25-33.41Q125.31-33.66 125.44-34.37L125.44-34.37L125.76-36.35L125.76-36.35Q126.02-37.63 126.40-39.74L126.40-39.74L127.42-44.80L140.16-46.08L133.06-8.96L133.06-8.96Q132.99-8.58 132.99-7.94L132.99-7.94L132.99-6.91L132.99-6.91Q132.99-5.50 133.70-4.45L133.70-4.45L133.70-4.45Q134.40-3.39 135.55-3.39L135.55-3.39L135.55-3.39Q134.27-0.38 130.37 0.90L130.37 0.90L130.37 0.90Q129.02 1.28 127.14 1.28L127.14 1.28L127.14 1.28Q125.25 1.28 123.52 0.29L123.52 0.29L123.52 0.29Q121.79-0.70 121.28-2.37L121.28-2.37L121.28-2.37Q120.26-0.70 118.21 0.29L118.21 0.29L118.21 0.29Q116.16 1.28 113.18 1.28L113.18 1.28L113.18 1.28Q110.21 1.28 107.74 0.51L107.74 0.51L107.74 0.51Q105.28-0.26 103.74-1.92L103.74-1.92L103.74-1.92Q100.93-5.18 100.93-12.61L100.93-12.61L100.93-12.61Q100.93-22.21 106.56-28.03L106.56-28.03L106.56-28.03Q112.19-33.92 121.15-33.92ZM120.70-30.08L120.70-30.08L120.70-30.08Q118.34-30.08 117.06-27.52L117.06-27.52L117.06-27.52Q115.78-24.96 114.46-18.62L114.46-18.62L114.46-18.62Q113.15-12.29 113.15-6.59L113.15-6.59L113.15-6.59Q113.15-2.69 115.46-2.69L115.46-2.69L115.46-2.69Q117.50-2.69 118.94-4.74L118.94-4.74L118.94-4.74Q120.38-6.78 120.96-10.18L120.96-10.18L124.42-28.93L124.42-28.93Q123.07-30.08 120.70-30.08ZM166.91-10.82L166.91-10.82L166.91-10.82Q168.51-9.73 168.51-7.33L168.51-7.33L168.51-7.33Q168.51-4.93 167.30-3.39L167.30-3.39L167.30-3.39Q166.08-1.86 164.10-0.83L164.10-0.83L164.10-0.83Q160 1.28 155.58 1.28L155.58 1.28L155.58 1.28Q151.17 1.28 148.58 0.32L148.58 0.32L148.58 0.32Q145.98-0.64 144.26-2.43L144.26-2.43L144.26-2.43Q140.86-5.82 140.86-12.03L140.86-12.03L140.86-12.03Q140.86-21.70 146.11-27.58L146.11-27.58L146.11-27.58Q151.74-33.92 161.54-33.92L161.54-33.92L161.54-33.92Q167.62-33.92 170.62-31.36L170.62-31.36L170.62-31.36Q172.86-29.44 172.86-26.30L172.86-26.30L172.86-26.30Q172.86-15.04 153.41-15.04L153.41-15.04L153.41-15.04Q153.15-13.38 153.15-11.97L153.15-11.97L153.15-11.97Q153.15-9.02 154.46-7.90L154.46-7.90L154.46-7.90Q155.78-6.78 158.21-6.78L158.21-6.78L158.21-6.78Q160.64-6.78 163.23-7.90L163.23-7.90L163.23-7.90Q165.82-9.02 166.91-10.82ZM153.86-17.79L153.86-17.79L153.86-17.79Q158.40-17.79 161.02-20.61L161.02-20.61L161.02-20.61Q163.65-23.30 163.65-27.58L163.65-27.58L163.65-27.58Q163.65-29.06 163.10-29.86L163.10-29.86L163.10-29.86Q162.56-30.66 161.47-30.66L161.47-30.66L161.47-30.66Q160.38-30.66 159.46-30.24L159.46-30.24L159.46-30.24Q158.53-29.82 157.57-28.42L157.57-28.42L157.57-28.42Q155.20-25.22 153.86-17.79ZM215.55-9.86L215.55-9.86L215.55-9.86Q216.77-8.32 216.77-5.82L216.77-5.82L216.77-5.82Q216.77-2.37 214.21-0.54L214.21-0.54L214.21-0.54Q211.65 1.28 207.62 1.28L207.62 1.28L207.62 1.28Q205.31 1.28 201.79 0.77L201.79 0.77L201.79 0.77Q194.88-0.32 192.77-0.32L192.77-0.32L192.77-0.32Q190.66-0.32 189.82-0.22L189.82-0.22L189.82-0.22Q188.99-0.13 187.65 0L187.65 0L195.52-42.24L223.10-42.24L223.10-42.24Q223.10-38.34 221.22-36.29L221.22-36.29L221.22-36.29Q219.33-34.24 215.62-34.24L215.62-34.24L215.62-34.24Q211.90-34.24 208.13-35.97L208.13-35.97L206.14-24.77L217.54-24.77L217.54-24.77Q217.54-21.38 215.87-19.49L215.87-19.49L215.87-19.49Q214.21-17.60 211.42-17.60L211.42-17.60L211.42-17.60Q208.64-17.60 206.91-18.24L206.91-18.24L206.91-18.24Q205.18-18.88 204.99-19.07L204.99-19.07L202.69-6.98L202.69-6.98Q204.22-6.78 207.10-6.78L207.10-6.78L207.10-6.78Q212.03-6.78 215.55-9.86ZM247.62-29.57L247.62-29.57L247.62-29.57Q248.58-31.49 248.58-33.28L248.58-33.28L248.58-33.28Q248.58-35.07 248.38-36.06L248.38-36.06L248.38-36.06Q248.19-37.06 247.74-37.82L247.74-37.82L247.74-37.82Q246.78-39.49 244.86-39.49L244.86-39.49L244.86-39.49Q242.50-39.49 240.58-37.76L240.58-37.76L240.58-37.76Q238.53-35.97 238.53-33.15L238.53-33.15L238.53-33.15Q238.53-31.36 239.78-29.98L239.78-29.98L239.78-29.98Q241.02-28.61 242.94-27.33L242.94-27.33L242.94-27.33Q244.86-26.05 247.04-24.77L247.04-24.77L247.04-24.77Q249.22-23.49 251.14-21.95L251.14-21.95L251.14-21.95Q255.55-18.43 255.55-13.70L255.55-13.70L255.55-13.70Q255.55-10.50 253.86-7.78L253.86-7.78L253.86-7.78Q252.16-5.06 249.34-3.07L249.34-3.07L249.34-3.07Q243.20 1.28 235.07 1.28L235.07 1.28L235.07 1.28Q228.48 1.28 225.09-0.86L225.09-0.86L225.09-0.86Q221.70-3.01 221.70-6.27L221.70-6.27L221.70-6.27Q221.70-12.10 226.24-13.57L226.24-13.57L226.24-13.57Q227.52-14.02 229.47-14.02L229.47-14.02L229.47-14.02Q231.42-14.02 233.66-13.18L233.66-13.18L233.66-13.18Q232.64-10.56 232.64-8.19L232.64-8.19L232.64-8.19Q232.64-3.07 236.29-3.07L236.29-3.07L236.29-3.07Q238.66-3.07 240.61-4.80L240.61-4.80L240.61-4.80Q242.56-6.53 242.56-8.48L242.56-8.48L242.56-8.48Q242.56-10.43 241.31-11.84L241.31-11.84L241.31-11.84Q240.06-13.25 238.21-14.37L238.21-14.37L238.21-14.37Q236.35-15.49 234.21-16.58L234.21-16.58L234.21-16.58Q232.06-17.66 230.21-19.20L230.21-19.20L230.21-19.20Q225.86-22.72 225.86-28.35L225.86-28.35L225.86-28.35Q225.86-32 227.65-34.85L227.65-34.85L227.65-34.85Q229.44-37.70 232.32-39.62L232.32-39.62L232.32-39.62Q238.08-43.52 245.15-43.52L245.15-43.52L245.15-43.52Q252.22-43.52 255.65-41.41L255.65-41.41L255.65-41.41Q259.07-39.30 259.07-35.71L259.07-35.71L259.07-35.71Q259.07-32.58 256.64-30.59L256.64-30.59L256.64-30.59Q254.53-28.93 251.97-28.93L251.97-28.93L251.97-28.93Q249.41-28.93 247.62-29.57ZM272.26 0.83L268.16 0.70L268.16 0.70Q266.18 0.64 264.10 0.64L264.10 0.64L264.10 0.64Q262.02 0.64 259.97 0.90L259.97 0.90L259.97 0.90Q259.71-0.13 259.71-1.34L259.71-1.34L259.71-1.34Q259.71-3.90 261.15-5.44L261.15-5.44L261.15-5.44Q262.59-6.98 264.83-6.98L264.83-6.98L268.29-6.98L273.66-31.17L273.66-31.17Q271.68-29.18 267.58-29.18L267.58-29.18L267.58-29.18Q265.54-29.18 263.94-31.10L263.94-31.10L263.94-31.10Q262.34-32.90 262.08-35.46L262.08-35.46L262.08-35.46Q271.55-37.12 285.70-43.46L285.70-43.46L287.74-41.02L281.54-6.98L283.14-6.98L283.14-6.98Q286.98-6.98 288.96-7.68L288.96-7.68L288.96-7.68Q289.79-6.27 289.79-3.97L289.79-3.97L289.79-3.97Q289.79-1.66 288.10-0.29L288.10-0.29L288.10-0.29Q286.40 1.09 283.58 1.09L283.58 1.09L283.58 1.09Q277.89 1.09 272.26 0.83L272.26 0.83ZM293.18-0.32L293.18-0.32L301.25-42.24L301.25-42.24Q308.80-42.88 313.66-42.88L313.66-42.88L313.66-42.88Q318.53-42.88 321.66-42.46L321.66-42.46L321.66-42.46Q324.80-42.05 326.91-40.96L326.91-40.96L326.91-40.96Q331.14-38.91 331.14-33.28L331.14-33.28L331.14-33.28Q331.14-30.02 328.32-27.26L328.32-27.26L328.32-27.26Q325.70-24.77 322.82-24.19L322.82-24.19L322.82-24.19Q325.89-23.68 328.06-21.38L328.06-21.38L328.06-21.38Q330.37-18.94 330.37-15.17L330.37-15.17L330.37-15.17Q330.37-7.87 324.93-3.62L324.93-3.62L324.93-3.62Q319.49 0.64 308.80 0.64L308.80 0.64L308.80 0.64Q301.44 0.64 293.18-0.32ZM310.59-20.61L307.39-4.03L307.39-4.03Q307.97-3.97 308.10-3.97L308.10-3.97L308.67-3.97L308.67-3.97Q313.92-3.97 316.16-7.42L316.16-7.42L316.16-7.42Q317.82-10.11 317.82-15.04L317.82-15.04L317.82-15.04Q317.82-17.66 316.13-19.07L316.13-19.07L316.13-19.07Q314.43-20.48 310.59-20.61L310.59-20.61ZM320.32-33.22L320.32-33.22L320.32-33.22Q320.32-38.53 315.20-38.53L315.20-38.53L314.62-38.53L314.62-38.53Q314.37-38.53 313.98-38.46L313.98-38.46L311.42-24.96L312.06-24.96L312.06-24.96Q320.32-25.15 320.32-33.22Z" fill="url(#editing-gradow-gradient)"></path></g></g><style>text {
  font-size: 64px;
  font-family: Arial Black;
  dominant-baseline: central;
  text-anchor: middle;
}</style></svg>