<svg width="564.425px" height="224px" xmlns="http://www.w3.org/2000/svg" viewBox="-32.21249999999998 -37 564.425 224" style="background: rgba(0, 0, 0, 0);" preserveAspectRatio="xMidYMid"><defs><linearGradient id="editing-sticker-gradient" x1="0.5" y1="0.2" x2="0.5" y2="0.8"><stop offset="0" stop-color="#99d2ff"></stop><stop offset="1" stop-color="#afafaf"></stop></linearGradient><filter id="editing-sticker" x="-100%" y="-100%" width="300%" height="300%"><feMorphology operator="erode" radius="1" in="SourceAlpha" result="alpha-erode"></feMorphology><feConvolveMatrix order="3,3" divisor="1" kernelMatrix="0 1 0 1 1 1 0 1 0" in="alpha-erode" result="alpha-round"></feConvolveMatrix><feMorphology operator="dilate" radius="3.5" in="alpha-round" result="dilate-shadow"></feMorphology><feGaussianBlur in="dilate-shadow" stdDeviation="1.5" result="shadow"></feGaussianBlur><feFlood flood-color="#fff" result="flood-sticker"></feFlood><feComposite operator="in" in="flood-sticker" in2="alpha-round" result="comp-sticker"></feComposite><feMorphology operator="dilate" radius="3" in="comp-sticker" result="morph-sticker"></feMorphology><feConvolveMatrix order="3,3" divisor="1" kernelMatrix="0 1 0 1 1 1 0 1 0" in="morph-sticker" result="sticker"></feConvolveMatrix><feMerge><feMergeNode in="shadow"></feMergeNode><feMergeNode in="sticker"></feMergeNode><feMergeNode in="SourceGraphic"></feMergeNode></feMerge></filter></defs><g filter="url(#editing-sticker)"><g transform="translate(50.25000607967377, 118.75)"><path d="M35.20 0L11.70 0L1.10-86L17.50-86L23.80-27.50L29.40-86L45.80-86L35.20 0ZM66.50 0L49.90 0L49.90-85.90L66.50-85.90L66.50 0ZM87.80 0L71.10 0L79.40-85.90L108.50-85.90L116.70 0L100.40 0L99.20-13.90L88.80-13.90L87.80 0ZM93.30-71.30L90.10-27.60L97.90-27.60L94.10-71.30L93.30-71.30ZM121.90 0L121.90-85.90L145.60-85.90L145.60-85.90Q154.80-85.90 159.40-80.80L159.40-80.80L159.40-80.80Q164-75.70 164.10-65.70L164.10-65.70L164.30-25.50L164.30-25.50Q164.40-12.80 159.90-6.40L159.90-6.40L159.90-6.40Q155.40 0 145 0L145 0L121.90 0ZM139.20-15.20L142.20-15.20L142.20-15.20Q146.90-15.20 146.90-19.80L146.90-19.80L146.90-64.10L146.90-64.10Q146.90-67 146.45-68.45L146.45-68.45L146.45-68.45Q146-69.90 144.80-70.40L144.80-70.40L144.80-70.40Q143.60-70.90 141.10-70.90L141.10-70.90L139.20-70.90L139.20-15.20ZM206.70 0L171.20 0L171.20-85.90L205.60-85.90L205.60-69.30L188.70-69.30L188.70-52.60L204.90-52.60L204.90-36.40L188.70-36.40L188.70-16.70L206.70-16.70L206.70 0ZM271.30 0L235.80 0L235.80-85.90L270.20-85.90L270.20-69.30L253.30-69.30L253.30-52.60L269.50-52.60L269.50-36.40L253.30-36.40L253.30-16.70L271.30-16.70L271.30 0ZM297.40 0.80L297.40 0.80Q285.70 0.80 280.50-5L280.50-5L280.50-5Q275.30-10.80 275.30-23.70L275.30-23.70L275.30-32.10L292.20-32.10L292.20-21.40L292.20-21.40Q292.20-15 296.30-15L296.30-15L296.30-15Q298.60-15 299.50-16.35L299.50-16.35L299.50-16.35Q300.40-17.70 300.40-20.90L300.40-20.90L300.40-20.90Q300.40-25.10 299.40-27.85L299.40-27.85L299.40-27.85Q298.40-30.60 296.85-32.45L296.85-32.45L296.85-32.45Q295.30-34.30 291.30-38.20L291.30-38.20L283.90-45.60L283.90-45.60Q275.30-54 275.30-64.20L275.30-64.20L275.30-64.20Q275.30-75.20 280.35-80.95L280.35-80.95L280.35-80.95Q285.40-86.70 295.10-86.70L295.10-86.70L295.10-86.70Q306.70-86.70 311.80-80.55L311.80-80.55L311.80-80.55Q316.90-74.40 316.90-61.30L316.90-61.30L299.40-61.30L299.30-67.20L299.30-67.20Q299.30-68.90 298.35-69.90L298.35-69.90L298.35-69.90Q297.40-70.90 295.70-70.90L295.70-70.90L295.70-70.90Q293.70-70.90 292.70-69.80L292.70-69.80L292.70-69.80Q291.70-68.70 291.70-66.80L291.70-66.80L291.70-66.80Q291.70-62.60 296.50-58.10L296.50-58.10L306.50-48.50L306.50-48.50Q310.00-45.10 312.30-42.05L312.30-42.05L312.30-42.05Q314.60-39 316.00-34.85L316.00-34.85L316.00-34.85Q317.40-30.70 317.40-25L317.40-25L317.40-25Q317.40-12.30 312.75-5.75L312.75-5.75L312.75-5.75Q308.10 0.80 297.40 0.80L297.40 0.80ZM331.10 0L331.10-66.20L331.10-66.20Q329.40-64.10 326.35-62.80L326.35-62.80L326.35-62.80Q323.30-61.50 320.50-61.50L320.50-61.50L320.50-75.20L320.50-75.20Q324.90-75.90 329.25-78.70L329.25-78.70L329.25-78.70Q333.60-81.50 335.50-86L335.50-86L349.30-86L349.30 0L331.10 0ZM356.20 0L356.20-85.90L379.50-85.90L379.50-85.90Q388.90-85.90 393.15-81.30L393.15-81.30L393.15-81.30Q397.40-76.70 397.40-66.30L397.40-66.30L397.40-62.50L397.40-62.50Q397.40-50.20 388.60-47.80L388.60-47.80L388.60-47.80Q394.00-46.40 396.20-41.30L396.20-41.30L396.20-41.30Q398.40-36.20 398.40-27.80L398.40-27.80L398.40-27.80Q398.40-14.10 394.30-7.05L394.30-7.05L394.30-7.05Q390.20 0 379.50 0L379.50 0L356.20 0ZM373.00-53.60L376.50-53.60L376.50-53.60Q378.70-53.60 379.50-55.25L379.50-55.25L379.50-55.25Q380.30-56.90 380.30-59.90L380.30-59.90L380.30-68.50L380.30-68.50Q380.30-72.70 376.60-72.70L376.60-72.70L373.00-72.70L373.00-53.60ZM374.70-15.10L374.70-15.10Q381.40-15.10 381.40-21.50L381.40-21.50L381.40-32.20L381.40-32.20Q381.40-36.10 380.25-38.10L380.25-38.10L380.25-38.10Q379.10-40.10 376.20-40.10L376.20-40.10L373.00-40.10L373.00-15.20L374.70-15.10Z" fill="url(#editing-sticker-gradient)" stroke="#000000" stroke-width="4"></path></g></g><style>text {
  font-size: 64px;
  font-family: Arial Black;
  dominant-baseline: central;
  text-anchor: middle;
}</style></svg>