<?xml version="1.0" encoding="utf-8"?>
<!-- Generator: Adobe Illustrator 16.0.0, SVG Export Plug-In . SVG Version: 6.00 Build 0)  -->
<!DOCTYPE svg PUBLIC "-//W3C//DTD SVG 1.1//EN" "http://www.w3.org/Graphics/SVG/1.1/DTD/svg11.dtd">
<svg version="1.1" id="Capa_1" xmlns="http://www.w3.org/2000/svg" xmlns:xlink="http://www.w3.org/1999/xlink" x="0px" y="0px"
	 width="435.876px" height="193.112px" viewBox="0 0 435.876 193.112" enable-background="new 0 0 435.876 193.112"
	 xml:space="preserve">
<path fill="#3C3C3B" d="M233.897,174.307h-84.205V19.524h84.205v28.808h-55.398v34.568h55.398v28.032h-55.398v34.57h55.398V174.307z
	"/>
<path fill="#74BBE9" d="M300.987,173.918h-29.473V47.278h-31.688l17.285-27.365h43.876V173.918z"/>
<path fill="#3C3C3B" d="M355.767,173.698H311.89V18.914h24.488c14.252,0,24.558,0.961,30.912,2.883
	c9.233,2.807,16.693,7.422,22.383,13.849c5.685,6.353,8.528,14.219,8.528,23.599c0,5.837-1.438,11.119-4.323,15.843
	c-2.287,4.802-6.128,9.347-11.521,13.628c17.799,8.495,26.701,21.717,26.701,39.666c0,9.234-2.18,17.138-6.537,23.711
	c-5.023,7.387-10.786,12.89-17.281,16.507C377.929,172,368.102,173.698,355.767,173.698z M347.9,80.074
	c7.091,0,12.594-1.661,16.511-4.986c3.322-3.102,4.985-7.164,4.985-12.186c0-5.098-1.663-8.938-4.985-11.523
	c-3.548-2.881-8.57-4.322-15.069-4.322h-7.979v33.018H347.9z M348.566,145.554c12.186,0,20.568-1.439,25.15-4.32
	c4.357-3.324,6.535-7.868,6.535-13.628c0-6.425-2.398-11.707-7.201-15.843c-5.393-3.84-13.775-5.763-25.15-5.763h-6.537v39.554
	H348.566z"/>
<g>
	<g>
		<path fill="#64A0C5" d="M79.005,18.805v27.248c14.99,0,27.249,12.259,27.249,27.245c0,14.804-11.813,27.251-27.249,27.251v73.258
			c1.548,0.036,3.148-0.706,4.029-2.229l42.745-70.398c5.085-8.356,7.72-18.074,7.72-27.882
			C133.499,43.234,109.068,18.805,79.005,18.805z"/>
	</g>
	<g>
		<path fill="#74BBE9" d="M81.11,173.336c-0.152,0.073-0.313,0.12-0.47,0.175C80.799,173.456,80.956,173.41,81.11,173.336z"/>
		<path fill="#74BBE9" d="M79.005,100.548c-15.255,0-27.248-12.355-27.248-27.251c0-14.986,12.262-27.245,27.248-27.245V18.805
			c-30.062,0-54.493,24.429-54.493,54.493c0,10.172,2.815,20.073,8.174,28.607l42.624,69.759c0.728,1.178,1.817,1.913,3.091,2.089
			c0.198,0.032,0.402,0.003,0.604,0.008V100.548z"/>
		<path fill="#74BBE9" d="M79.406,173.765c0.17-0.01,0.337-0.022,0.508-0.051C79.745,173.743,79.575,173.755,79.406,173.765z"/>
		<path fill="#74BBE9" d="M81.827,172.877c0.116-0.087,0.24-0.152,0.35-0.252C82.069,172.725,81.941,172.792,81.827,172.877z"/>
	</g>
</g>
</svg>
