<?xml version="1.0" encoding="utf-8"?>
<!-- Generator: Adobe Illustrator 16.0.0, SVG Export Plug-In . SVG Version: 6.00 Build 0)  -->
<!DOCTYPE svg PUBLIC "-//W3C//DTD SVG 1.1//EN" "http://www.w3.org/Graphics/SVG/1.1/DTD/svg11.dtd">
<svg version="1.1" id="Capa_1" xmlns="http://www.w3.org/2000/svg" xmlns:xlink="http://www.w3.org/1999/xlink" x="0px" y="0px"
	 width="920.352px" height="193.112px" viewBox="0 0 920.352 193.112" enable-background="new 0 0 920.352 193.112"
	 xml:space="preserve">
<path fill="#3C3C3B" d="M97.549,157.038H74.606L29.805,30.981h24.758l44.165,124.244L97.549,157.038z M107.525,130.466
	L95.192,95.731l23.579-64.75h24.667L107.525,130.466z"/>
<path fill="#3C3C3B" d="M180.512,156.856h-23.58V30.164h23.58V156.856z"/>
<path fill="#3C3C3B" d="M315.983,156.856h-25.394l-9.432-25.938h-51.784l-10.61,25.938h-24.758l48.882-126.692h24.213l0.542,1.814
	L255.31,63.809l-17.14,43.532h34.191l-8.252-20.586l12.425-31.833L315.983,156.856z"/>
<path fill="#3C3C3B" d="M512.015,156.856H443.09V30.164h68.925v23.579h-45.348v28.294h45.348v22.944h-45.348v28.296h45.348V156.856z
	"/>
<path fill="#74BBE9" d="M648.844,156.856h-68.923V30.164h68.923v23.579H603.5v28.294h45.344v22.944H603.5v28.296h45.344V156.856z"/>
<path fill="#74BBE9" d="M702.967,160.574c-17.837,0-31.378-9.25-40.63-27.75l20.677-12.334c6.108,11.367,12.969,17.05,20.587,17.05
	c4.05,0,7.584-1.178,10.609-3.538c2.723-2.539,4.084-5.29,4.084-8.253c0-2.902-0.968-5.833-2.904-8.796
	c-2.419-2.902-7.133-7.225-14.145-12.969c-13.545-11.304-22.372-19.952-26.482-25.937c-4.356-6.227-6.53-12.302-6.53-18.228
	c0-8.828,3.356-16.476,10.064-22.945c7.015-6.287,15.236-9.432,24.67-9.432c6.529,0,12.635,1.573,18.319,4.716
	c5.563,2.843,11.847,8.132,18.861,15.87l-18.316,15.871c-6.048-8.585-12.335-12.877-18.864-12.877c-3.568,0-6.108,0.787-7.618,2.357
	c-1.937,1.513-2.904,3.479-2.904,5.895c0,1.814,0.573,3.75,1.726,5.804c1.209,1.211,3.279,3.129,6.211,5.758
	c2.932,2.63,6.754,6.031,11.474,10.204c2.838,2.298,5.317,4.369,7.437,6.212c2.116,1.845,3.898,3.431,5.348,4.761
	c0.967,0.907,1.801,1.664,2.498,2.268c0.69,0.605,1.282,1.087,1.767,1.45c8.646,8.467,12.966,18.08,12.966,28.839
	c0,10.702-3.535,19.348-10.61,25.937C724.187,157.219,714.756,160.574,702.967,160.574z"/>
<path fill="#74BBE9" d="M805.426,157.038h-24.124V53.38h-25.934l14.147-22.399h35.91V157.038z"/>
<path fill="#74BBE9" d="M854.833,156.856h-35.91V30.164h20.044c11.664,0,20.101,0.787,25.3,2.358
	c7.558,2.299,13.663,6.076,18.322,11.337c4.653,5.2,6.979,11.638,6.979,19.315c0,4.777-1.177,9.101-3.538,12.968
	c-1.87,3.931-5.017,7.65-9.428,11.154c14.569,6.954,21.854,17.776,21.854,32.467c0,7.559-1.782,14.027-5.351,19.407
	c-4.113,6.046-8.827,10.551-14.147,13.512C872.972,155.467,864.93,156.856,854.833,156.856z M848.397,80.225
	c5.802,0,10.307-1.36,13.511-4.082c2.723-2.54,4.083-5.863,4.083-9.975c0-4.172-1.36-7.315-4.083-9.432
	c-2.901-2.359-7.015-3.538-12.332-3.538h-6.529v27.026H848.397z M848.943,133.821c9.973,0,16.833-1.179,20.586-3.537
	c3.564-2.72,5.348-6.439,5.348-11.154c0-5.26-1.965-9.583-5.894-12.969c-4.413-3.143-11.276-4.716-20.586-4.716h-5.351v32.375
	H848.943z"/>
<path fill="#3C3C3B" d="M421.343,59.639c-5.983-10.398-13.452-17.866-22.398-22.401c-8.829-4.715-22.37-7.074-40.629-7.074h-28.84
	v126.692h28.84c16.505,0,28.082-0.998,34.734-2.992c6.648-2.237,12.754-5.955,18.317-11.155
	c6.044-5.502,10.549-12.364,13.514-20.586c3.145-8.162,4.715-17.019,4.715-26.573C429.596,81.344,426.845,69.373,421.343,59.639z"/>
<g>
	<path fill="#FFFFFF" d="M375.609,48.483c-18.156,0-32.911,14.755-32.911,32.912c0,6.143,1.701,12.123,4.937,17.277l25.744,42.132
		c0.438,0.711,1.098,1.154,1.865,1.262c1.042,0.164,2.196-0.274,2.8-1.314l25.815-42.518c3.072-5.046,4.662-10.915,4.662-16.839
		C408.521,63.238,393.764,48.483,375.609,48.483z M375.609,97.853c-9.214,0-16.455-7.462-16.455-16.458
		c0-9.051,7.405-16.455,16.455-16.455c9.053,0,16.456,7.403,16.456,16.455C392.065,90.335,384.933,97.853,375.609,97.853z"/>
	<path fill="#EDEDED" d="M375.609,48.483V64.94c9.053,0,16.456,7.403,16.456,16.455c0,8.941-7.132,16.458-16.456,16.458v44.245
		c0.938,0.021,1.899-0.427,2.435-1.346l25.815-42.518c3.072-5.046,4.662-10.915,4.662-16.839
		C408.521,63.238,393.764,48.483,375.609,48.483z"/>
</g>
</svg>
