<?xml version="1.0" encoding="utf-8"?>
<!-- Generator: Adobe Illustrator 16.0.0, SVG Export Plug-In . SVG Version: 6.00 Build 0)  -->
<!DOCTYPE svg PUBLIC "-//W3C//DTD SVG 1.1//EN" "http://www.w3.org/Graphics/SVG/1.1/DTD/svg11.dtd">
<svg version="1.1" id="Capa_1" xmlns="http://www.w3.org/2000/svg" xmlns:xlink="http://www.w3.org/1999/xlink" x="0px" y="0px"
	 width="595.276px" height="841.89px" viewBox="0 0 595.276 841.89" enable-background="new 0 0 595.276 841.89"
	 xml:space="preserve">
<g>
	<g>
		<path fill="#64A0C5" d="M297.634,41.97v134.354c73.913,0,134.358,60.445,134.358,134.335c0,72.996-58.245,134.363-134.358,134.363
			v361.229c7.632,0.174,15.522-3.487,19.868-10.993l210.765-347.113c25.073-41.202,38.066-89.12,38.066-137.486
			C566.333,162.427,445.871,41.97,297.634,41.97z"/>
	</g>
	<g>
		<path fill="#74BBE9" d="M308.014,803.934c-0.747,0.355-1.542,0.584-2.318,0.858C306.481,804.518,307.257,804.299,308.014,803.934z
			"/>
		<path fill="#74BBE9" d="M297.634,445.022c-75.219,0-134.35-60.91-134.35-134.363c0-73.89,60.464-134.335,134.35-134.335V41.97
			c-148.229,0-268.69,120.457-268.69,268.689c0,50.16,13.878,98.977,40.303,141.056L279.417,795.68
			c3.588,5.807,8.958,9.44,15.24,10.299c0.977,0.164,1.98,0.018,2.977,0.045V445.022z"/>
		<path fill="#74BBE9" d="M299.615,806.052c0.84-0.056,1.662-0.109,2.502-0.256C301.286,805.942,300.446,805.996,299.615,806.052z"
			/>
		<path fill="#74BBE9" d="M311.549,801.669c0.575-0.429,1.187-0.749,1.725-1.242C312.745,800.92,312.115,801.248,311.549,801.669z"
			/>
	</g>
</g>
</svg>
